<svg xmlns="http://www.w3.org/2000/svg" xmlns:xlink="http://www.w3.org/1999/xlink" viewBox="0 0 622 371.04"><defs><style>.cls-1{fill:none;}.cls-2{fill:#133f42;}.cls-3{fill:url(#New_Pattern_5);}</style><pattern id="New_Pattern_5" data-name="New Pattern 5" width="195.89" height="206.58" patternTransform="translate(365.6 352.47) scale(0.49 0.49)" patternUnits="userSpaceOnUse" viewBox="0 0 195.89 206.59"><rect class="cls-1" width="195.89" height="206.58"/><path class="cls-2" d="M173.18,166.46c-.19-.19-.36-.39-.54-.6,0,.06.18.32.44.77s.7,1.21,1.24,2.05a53,53,0,0,0,4.45,6c.92,1.09,1.83,2.1,2.71,3a14.65,14.65,0,0,0,2.45,2.1,6,6,0,0,0,2,.86,3.91,3.91,0,0,0,.64.08l.24,0-.21.12a3.93,3.93,0,0,1-.63.29,5.32,5.32,0,0,1-2.64.17,10,10,0,0,1-3.63-1.48,15.51,15.51,0,0,1-3.49-3l-.25-.33h0c-.36-.05-.9-.15-1.59-.31a21.09,21.09,0,0,1-5.59-2.24A21.85,21.85,0,0,1,158,157.33V157h0v-.17l0-.18.05-.38.12-.74c.09-.49.2-1,.32-1.46a23,23,0,0,1,.89-2.77,21.5,21.5,0,0,1,2.65-4.8,22.06,22.06,0,0,1,6.77-6.06,21.09,21.09,0,0,1,5.59-2.24,15,15,0,0,1,1.59-.3h0a3.92,3.92,0,0,1,.25-.32,15.32,15.32,0,0,1,3.49-3,10,10,0,0,1,3.63-1.48,5.44,5.44,0,0,1,2.64.17,3.93,3.93,0,0,1,.63.29l.21.13h-.24a3.91,3.91,0,0,0-.64.08,6,6,0,0,0-2,.87,14.09,14.09,0,0,0-2.45,2.09c-.88.9-1.79,1.91-2.71,3a53.94,53.94,0,0,0-4.45,6c-.54.84-.95,1.56-1.24,2.06l-.44.77c.18-.21.35-.42.54-.61a14.76,14.76,0,0,1,7-4.06,14.29,14.29,0,0,1,5.28-.34,10.22,10.22,0,0,1,1.4.26l.47.12-.49,0a13.13,13.13,0,0,0-1.38.11,16.3,16.3,0,0,0-4.73,1.38,14.91,14.91,0,0,0-5.44,4.32,14.49,14.49,0,0,0-2,3.5,14.71,14.71,0,0,0-.64,2c-.08.35-.15.71-.22,1.06l-.08.54,0,.28v.11A14.46,14.46,0,0,0,180.71,169a16,16,0,0,0,4.73,1.38q.9.1,1.38.12l.49,0-.47.12a12.48,12.48,0,0,1-1.4.25,14.29,14.29,0,0,1-5.28-.34A14.76,14.76,0,0,1,173.18,166.46Zm-.6.29c0-.57,0-.88,0-.9A15.46,15.46,0,0,1,169,157.3V157h0v-.15l0-.16,0-.34.11-.67c.09-.44.18-.88.3-1.31a15.33,15.33,0,0,1,3.11-5.89s0-.33,0-.91a15.5,15.5,0,0,1,.2-2.5,15.78,15.78,0,0,1,3.06-7c-.33.13-.75.33-1.26.57a25.08,25.08,0,0,0-4.84,3.11,24.37,24.37,0,0,0-5.4,6.25,22.24,22.24,0,0,0-2,4.35c-.26.78-.49,1.6-.68,2.43-.09.42-.18.84-.24,1.27l-.1.65-.05.32v.14a23.16,23.16,0,0,0,3.09,9.17,24.37,24.37,0,0,0,5.4,6.25,25.08,25.08,0,0,0,4.84,3.11q.76.38,1.26.57a15.73,15.73,0,0,1-3.06-7A15.5,15.5,0,0,1,172.58,166.75Z"/><path class="cls-2" d="M189.51,181.14a3.93,3.93,0,0,1-.63-.29l-.21-.12.24,0a3.91,3.91,0,0,0,.64-.08,6,6,0,0,0,2-.86,14.65,14.65,0,0,0,2.45-2.1c.88-.9,1.79-1.91,2.71-3a51.82,51.82,0,0,0,4.45-6c.54-.84.95-1.55,1.24-2.05l.44-.77c-.18.2-.35.41-.53.6a14.79,14.79,0,0,1-7,4.06,14.29,14.29,0,0,1-5.28.34,12.48,12.48,0,0,1-1.4-.25l-.47-.12.49,0c.32,0,.79-.05,1.38-.12a16,16,0,0,0,4.73-1.38,14.91,14.91,0,0,0,5.44-4.32,14.28,14.28,0,0,0,2-3.49,15.31,15.31,0,0,0,.64-2c.08-.35.15-.7.22-1.06l.08-.54,0-.27v-.11a14.46,14.46,0,0,0-8.39-11.84,16.3,16.3,0,0,0-4.73-1.38,12.94,12.94,0,0,0-1.38-.11l-.49,0,.47-.12a10.22,10.22,0,0,1,1.4-.26,14.29,14.29,0,0,1,5.28.34,14.71,14.71,0,0,1,7,4.06c.19.19.36.4.54.6l-.44-.76c-.29-.5-.7-1.22-1.24-2.06a52.7,52.7,0,0,0-4.45-6c-.92-1.09-1.83-2.1-2.71-3a14.09,14.09,0,0,0-2.45-2.09,6,6,0,0,0-2-.87,3.91,3.91,0,0,0-.64-.08h-.24l.21-.13a3.93,3.93,0,0,1,.63-.29,5.44,5.44,0,0,1,2.64-.17,10,10,0,0,1,3.63,1.48,15.32,15.32,0,0,1,3.49,3,3.92,3.92,0,0,1,.25.32h0a15,15,0,0,1,1.59.3,21.09,21.09,0,0,1,5.59,2.24A21.85,21.85,0,0,1,217.57,157v.38h0v.17l0,.19-.05.37-.12.74c-.09.5-.2,1-.31,1.46a24.24,24.24,0,0,1-.9,2.77,21.11,21.11,0,0,1-2.65,4.8,22.06,22.06,0,0,1-6.77,6.06,21.09,21.09,0,0,1-5.59,2.24c-.69.16-1.23.26-1.59.31h0l-.25.33a15.51,15.51,0,0,1-3.49,3,10,10,0,0,1-3.63,1.48A5.32,5.32,0,0,1,189.51,181.14Zm10.18-4.9q.5-.19,1.26-.57a24.78,24.78,0,0,0,4.84-3.11,24.37,24.37,0,0,0,5.4-6.25,22.42,22.42,0,0,0,2-4.34c.26-.79.49-1.61.68-2.44.09-.42.18-.84.25-1.27l.1-.65,0-.32v-.13a23.21,23.21,0,0,0-3.09-9.18,24.37,24.37,0,0,0-5.4-6.25,24.78,24.78,0,0,0-4.84-3.11c-.51-.24-.93-.44-1.26-.57a15.67,15.67,0,0,1,3.06,7,14.42,14.42,0,0,1,.2,2.5c0,.57,0,.89,0,.91a15.33,15.33,0,0,1,3.59,8.54v.32h0v.15l0,.17,0,.34-.11.66c-.08.45-.18.88-.3,1.31a15.18,15.18,0,0,1-.89,2.45,14.94,14.94,0,0,1-2.22,3.44s0,.33,0,.91a14.42,14.42,0,0,1-.2,2.5A15.62,15.62,0,0,1,199.69,176.24Z"/><path class="cls-2" d="M182.55,188.85A17.55,17.55,0,0,1,171,179.36a17.48,17.48,0,0,1-.92-2.37l-.28-.93a9.34,9.34,0,0,0-.24,1,10.73,10.73,0,0,0-.15,2.74,11.6,11.6,0,0,0,1,4c0,.07.08.14.11.22l-.12,0a8.32,8.32,0,0,1-4.1-.45,22.5,22.5,0,0,1-11-7.57A22.4,22.4,0,0,1,151,159.23c.06-.52.14-.91.19-1.18l.07-.42-.2.37c-.13.24-.34.6-.56,1.08a17.47,17.47,0,0,0-1.33,4.34,18.63,18.63,0,0,0,.08,6.85,13.67,13.67,0,0,0,.32,1.34c-.29-.6-.59-1.18-.9-1.71a27.13,27.13,0,0,0-4.76-5.83,48.79,48.79,0,0,0-3.77-3.23c-.92-.72-1.44-1.1-1.44-1.1l1.08,1.46c.69.93,1.72,2.27,2.89,3.94a36.08,36.08,0,0,1,3.54,6A18.47,18.47,0,0,1,148,179a7.05,7.05,0,0,1-1,3.47,2.4,2.4,0,0,1-2.19,1.28,3.8,3.8,0,0,1-2.49-1.27,2.66,2.66,0,0,1-.7-2.3,2.24,2.24,0,0,1,4-1.06,2.54,2.54,0,0,1,.24.4,2.64,2.64,0,0,0-.12-.47,2.48,2.48,0,0,0-.88-1.1,3,3,0,0,0-2.32-.48,3.6,3.6,0,0,0-2.46,2.21,4.29,4.29,0,0,0-.29,2,4.77,4.77,0,0,0,.73,2.08,6,6,0,0,0,3.93,2.71,4.87,4.87,0,0,0,2.89-.35,5.71,5.71,0,0,0,2.25-1.86,9.28,9.28,0,0,0,1.71-5.19,15.5,15.5,0,0,0-.59-4.48,18,18,0,0,0,2.11,3.42,19,19,0,0,0,6.64,5.35,18.25,18.25,0,0,0,6.62,1.81,8.22,8.22,0,0,0,4.57-.68l.17-.1a11.6,11.6,0,0,0,11.66,6.06,10.35,10.35,0,0,0,2.65-.67c.59-.25.9-.42.9-.42l-1-.09A18.25,18.25,0,0,1,182.55,188.85Z"/><path class="cls-2" d="M193,125.45a17.48,17.48,0,0,1,11.52,9.49,15.76,15.76,0,0,1,.92,2.36l.28.93a9.34,9.34,0,0,0,.24-1,10.68,10.68,0,0,0,.15-2.73,11.6,11.6,0,0,0-1-4c0-.07-.08-.14-.11-.21l.12,0a8.34,8.34,0,0,1,4.11.44,22.44,22.44,0,0,1,11,7.57,22.4,22.4,0,0,1,4.38,16.79c-.06.52-.14.91-.19,1.19l-.07.41.2-.36a10.33,10.33,0,0,0,.56-1.09,17.09,17.09,0,0,0,1.33-4.33,18.69,18.69,0,0,0-.08-6.86,13.67,13.67,0,0,0-.32-1.34c.29.6.59,1.18.9,1.72a27.38,27.38,0,0,0,4.76,5.83c1.53,1.45,2.85,2.5,3.77,3.22s1.44,1.1,1.44,1.1l-1.08-1.46c-.69-.93-1.71-2.26-2.89-3.93a36.91,36.91,0,0,1-3.54-6,18.51,18.51,0,0,1-1.79-7.83,7.16,7.16,0,0,1,1-3.47,2.4,2.4,0,0,1,2.19-1.29,3.89,3.89,0,0,1,2.5,1.27,2.68,2.68,0,0,1,.69,2.3,2.16,2.16,0,0,1-3,1.78,2.26,2.26,0,0,1-1-.72,3.84,3.84,0,0,1-.24-.39,3,3,0,0,0,.12.46,2.48,2.48,0,0,0,.88,1.1,3,3,0,0,0,2.32.48,3.6,3.6,0,0,0,2.46-2.21,4.14,4.14,0,0,0,.29-2,4.81,4.81,0,0,0-.73-2.09,6,6,0,0,0-3.93-2.71,4.87,4.87,0,0,0-2.89.35A5.71,5.71,0,0,0,226,130a9.33,9.33,0,0,0-1.71,5.2,15.83,15.83,0,0,0,.59,4.47,18,18,0,0,0-2.11-3.42,19.09,19.09,0,0,0-6.64-5.35,18.25,18.25,0,0,0-6.62-1.81,8.22,8.22,0,0,0-4.57.68l-.17.1a11.59,11.59,0,0,0-11.65-6.06,10.27,10.27,0,0,0-2.66.68,9.56,9.56,0,0,0-.9.41l1,.09A17.07,17.07,0,0,1,193,125.45Z"/><path class="cls-2" d="M221.41,185c-3.62-1.38-7.82-.36-11.14,1.71a26.2,26.2,0,0,0-4.44,3.48c-1.29,1.24-2.41,2.48-3.48,3.63a36.14,36.14,0,0,1-6,5.51,13.4,13.4,0,0,1-2.7,1.45,5.34,5.34,0,0,1-2.25.34,2.63,2.63,0,0,1-1.36-.5,3.67,3.67,0,0,1-.4-.35,2.67,2.67,0,0,0,1.65,1.35,5.81,5.81,0,0,0,2.6.17,12.27,12.27,0,0,0,3.25-1,28.66,28.66,0,0,0,7.13-5,53.89,53.89,0,0,1,7.7-6.28,14.48,14.48,0,0,1,4.36-1.88,8.67,8.67,0,0,1,4.14,0,2.51,2.51,0,0,1,2,2,3.53,3.53,0,0,1-.89,2.82,6.22,6.22,0,0,1-4.69,1.78,1.11,1.11,0,0,1-.68-.31,1,1,0,0,1-.22-.53.63.63,0,0,1,.17-.47.67.67,0,0,0-.31.46,1.06,1.06,0,0,0,.11.71,1.46,1.46,0,0,0,.79.63,6.39,6.39,0,0,0,2.59.23,6.54,6.54,0,0,0,3.34-1.28,5.29,5.29,0,0,0,2-4.17,4.63,4.63,0,0,0-.92-2.75A5.69,5.69,0,0,0,221.41,185Z"/><path class="cls-2" d="M154.12,129.29c3.62,1.39,7.82.36,11.14-1.71a26.2,26.2,0,0,0,4.44-3.48c1.29-1.24,2.41-2.47,3.49-3.62a35.83,35.83,0,0,1,6-5.52,13.92,13.92,0,0,1,2.7-1.45,5.34,5.34,0,0,1,2.25-.34,2.73,2.73,0,0,1,1.76.85,3.29,3.29,0,0,0-.3-.45,2.94,2.94,0,0,0-1.35-.9,5.81,5.81,0,0,0-2.6-.17,12.65,12.65,0,0,0-3.25,1,28.92,28.92,0,0,0-7.13,5,54.64,54.64,0,0,1-7.7,6.29,15,15,0,0,1-4.36,1.88,8.62,8.62,0,0,1-4.13,0,2.5,2.5,0,0,1-2-2,3.53,3.53,0,0,1,.89-2.82,6.24,6.24,0,0,1,4.69-1.78,1.11,1.11,0,0,1,.68.31.89.89,0,0,1,.22.53.63.63,0,0,1-.17.47.63.63,0,0,0,.31-.46,1,1,0,0,0-.11-.7,1.39,1.39,0,0,0-.79-.64,6.35,6.35,0,0,0-2.59-.23,6.54,6.54,0,0,0-3.34,1.28,5.3,5.3,0,0,0-2,4.18,4.63,4.63,0,0,0,.92,2.74A5.69,5.69,0,0,0,154.12,129.29Z"/><path class="cls-2" d="M185.48,200.62a2.63,2.63,0,0,1-1.36.5,5.34,5.34,0,0,1-2.25-.34,13.4,13.4,0,0,1-2.7-1.45,35.72,35.72,0,0,1-6-5.51c-1.08-1.15-2.2-2.39-3.49-3.63a26.2,26.2,0,0,0-4.44-3.48c-3.32-2.07-7.52-3.09-11.14-1.71a5.69,5.69,0,0,0-2.41,1.76,4.63,4.63,0,0,0-.92,2.75,5.29,5.29,0,0,0,2,4.17,6.54,6.54,0,0,0,3.34,1.28,6.35,6.35,0,0,0,2.59-.23,1.42,1.42,0,0,0,.79-.63,1.06,1.06,0,0,0,.11-.71.67.67,0,0,0-.31-.46.63.63,0,0,1,.17.47.89.89,0,0,1-.22.53,1.11,1.11,0,0,1-.68.31,6.24,6.24,0,0,1-4.69-1.78,3.53,3.53,0,0,1-.89-2.82,2.51,2.51,0,0,1,2-2,8.63,8.63,0,0,1,4.13,0,14.48,14.48,0,0,1,4.36,1.88,53.89,53.89,0,0,1,7.7,6.28,28.66,28.66,0,0,0,7.13,5,12.27,12.27,0,0,0,3.25,1,5.81,5.81,0,0,0,2.6-.17,2.67,2.67,0,0,0,1.65-1.35A2.72,2.72,0,0,1,185.48,200.62Z"/><path class="cls-2" d="M190.05,113.67a2.73,2.73,0,0,1,1.36-.5,5.34,5.34,0,0,1,2.25.34,13.92,13.92,0,0,1,2.7,1.45,36.24,36.24,0,0,1,6,5.52c1.07,1.15,2.19,2.38,3.48,3.62a26.2,26.2,0,0,0,4.44,3.48c3.32,2.07,7.52,3.1,11.14,1.71a5.69,5.69,0,0,0,2.41-1.76,4.63,4.63,0,0,0,.92-2.74,5.3,5.3,0,0,0-2-4.18,6.54,6.54,0,0,0-3.34-1.28,6.39,6.39,0,0,0-2.59.23,1.43,1.43,0,0,0-.79.64,1,1,0,0,0-.11.7.63.63,0,0,0,.31.46.63.63,0,0,1-.17-.47,1,1,0,0,1,.22-.53,1.11,1.11,0,0,1,.68-.31,6.22,6.22,0,0,1,4.69,1.78,3.53,3.53,0,0,1,.89,2.82,2.5,2.5,0,0,1-2,2,8.66,8.66,0,0,1-4.14,0,15,15,0,0,1-4.36-1.88,54.64,54.64,0,0,1-7.7-6.29,28.92,28.92,0,0,0-7.13-5,12.65,12.65,0,0,0-3.25-1,5.81,5.81,0,0,0-2.6.17,2.94,2.94,0,0,0-1.35.9,3.29,3.29,0,0,0-.3.45A3.67,3.67,0,0,1,190.05,113.67Z"/><path class="cls-2" d="M232.85,165.14c1.18-1.67,2.2-3,2.89-3.94l1.08-1.46s-.52.38-1.44,1.1a48.79,48.79,0,0,0-3.77,3.23,27.13,27.13,0,0,0-4.76,5.83c-.31.53-.61,1.11-.9,1.71a13.67,13.67,0,0,0,.32-1.34,18.63,18.63,0,0,0,.08-6.85,17.05,17.05,0,0,0-1.33-4.34,10,10,0,0,0-.56-1.08l-.2-.37.07.42c0,.27.13.66.19,1.18A22.4,22.4,0,0,1,220.14,176a22.44,22.44,0,0,1-11,7.57,8.37,8.37,0,0,1-4.11.45l-.12,0c0-.08.08-.15.11-.22a11.6,11.6,0,0,0,1-4,10.73,10.73,0,0,0-.15-2.74,9.34,9.34,0,0,0-.24-1l-.28.93a16.23,16.23,0,0,1-.92,2.37,17.67,17.67,0,0,1-4.7,6,17.9,17.9,0,0,1-6.82,3.46,18.25,18.25,0,0,1-2.5.45l-1,.09s.31.17.9.42a10.33,10.33,0,0,0,2.66.67,11.63,11.63,0,0,0,4.15-.24,11.32,11.32,0,0,0,7.5-5.82l.17.1a8.22,8.22,0,0,0,4.57.68,18.25,18.25,0,0,0,6.62-1.81,19,19,0,0,0,6.64-5.35,18,18,0,0,0,2.11-3.42,15.85,15.85,0,0,0-.59,4.48,9.3,9.3,0,0,0,1.71,5.19,5.71,5.71,0,0,0,2.25,1.86,4.87,4.87,0,0,0,2.89.35,6,6,0,0,0,3.93-2.71,4.77,4.77,0,0,0,.73-2.08,4.16,4.16,0,0,0-.29-2,3.6,3.6,0,0,0-2.46-2.21,3,3,0,0,0-2.32.48,2.48,2.48,0,0,0-.88,1.1,2.64,2.64,0,0,0-.12.47,2.54,2.54,0,0,1,.24-.4,2.21,2.21,0,0,1,4,1.06,2.65,2.65,0,0,1-.69,2.3,3.84,3.84,0,0,1-2.5,1.27,2.41,2.41,0,0,1-2.19-1.28,7.16,7.16,0,0,1-1-3.47,18.47,18.47,0,0,1,1.79-7.83A36.08,36.08,0,0,1,232.85,165.14Z"/><path class="cls-2" d="M142.68,149.16c-1.17,1.67-2.2,3-2.89,3.93l-1.08,1.46s.52-.38,1.44-1.1,2.24-1.77,3.77-3.22a27.38,27.38,0,0,0,4.76-5.83c.31-.54.61-1.12.9-1.72a13.67,13.67,0,0,0-.32,1.34,18.69,18.69,0,0,0-.08,6.86,17.51,17.51,0,0,0,1.33,4.33c.22.49.43.84.56,1.09l.2.36-.07-.41c0-.28-.13-.67-.19-1.19a22.4,22.4,0,0,1,4.38-16.79,22.5,22.5,0,0,1,11-7.57,8.3,8.3,0,0,1,4.1-.44l.12,0c0,.07-.08.14-.11.21a11.6,11.6,0,0,0-1,4,10.68,10.68,0,0,0,.15,2.73,9.34,9.34,0,0,0,.24,1l.28-.93a16.94,16.94,0,0,1,.92-2.36,17.48,17.48,0,0,1,11.52-9.49,17.07,17.07,0,0,1,2.5-.46l1-.09a9.56,9.56,0,0,0-.9-.41,10.29,10.29,0,0,0-2.65-.68,11.49,11.49,0,0,0-11.66,6.06l-.17-.1a8.22,8.22,0,0,0-4.57-.68,18.25,18.25,0,0,0-6.62,1.81,19.09,19.09,0,0,0-6.64,5.35,18,18,0,0,0-2.11,3.42,15.48,15.48,0,0,0,.59-4.47,9.33,9.33,0,0,0-1.71-5.2,5.71,5.71,0,0,0-2.25-1.86,4.87,4.87,0,0,0-2.89-.35,6,6,0,0,0-3.93,2.71,4.81,4.81,0,0,0-.73,2.09,4.26,4.26,0,0,0,.29,2,3.6,3.6,0,0,0,2.46,2.21,3,3,0,0,0,2.32-.48,2.48,2.48,0,0,0,.88-1.1,3,3,0,0,0,.12-.46,3.84,3.84,0,0,1-.24.39,2.26,2.26,0,0,1-1,.72,2.16,2.16,0,0,1-3-1.78,2.66,2.66,0,0,1,.7-2.3,3.84,3.84,0,0,1,2.49-1.27,2.39,2.39,0,0,1,2.19,1.29,7.05,7.05,0,0,1,1,3.47,18.51,18.51,0,0,1-1.79,7.83A36.91,36.91,0,0,1,142.68,149.16Z"/><path class="cls-2" d="M212.54,194.69a7.61,7.61,0,0,0-3,.38,12.79,12.79,0,0,0-3.95,2.17c-1.32,1-2.57,2.26-3.81,3.43a17.79,17.79,0,0,1-3.64,2.79,15.46,15.46,0,0,1-3.57,1.46,17.16,17.16,0,0,1-2.71.47,6.58,6.58,0,0,1-.78.05l-.27,0,.24.12a7.91,7.91,0,0,0,.74.32,10.63,10.63,0,0,0,2.92.65,11.59,11.59,0,0,0,4.52-.54,12.56,12.56,0,0,0,4.79-2.95,48.06,48.06,0,0,0,3.46-3.8,19.62,19.62,0,0,1,2.8-2.73,9.26,9.26,0,0,1,2.34-1.33c.31-.11.56-.2.73-.24l.27-.07-.27-.07A5.51,5.51,0,0,0,212.54,194.69Z"/><path class="cls-2" d="M163,119.6a7.43,7.43,0,0,0,3-.38,13,13,0,0,0,3.95-2.16c1.32-1,2.57-2.27,3.81-3.44a18.06,18.06,0,0,1,3.64-2.79,15,15,0,0,1,3.57-1.45,16.26,16.26,0,0,1,2.71-.48l.78-.05.27,0-.24-.12a7.91,7.91,0,0,0-.74-.32,11,11,0,0,0-2.91-.65,11.46,11.46,0,0,0-4.53.55,12.66,12.66,0,0,0-4.79,2.94,49.89,49.89,0,0,0-3.46,3.8,19.62,19.62,0,0,1-2.8,2.73,9.68,9.68,0,0,1-2.34,1.34c-.31.11-.56.19-.73.23l-.27.08.27.06A5.51,5.51,0,0,0,163,119.6Z"/><path class="cls-2" d="M183.68,205.39a17.16,17.16,0,0,1-2.71-.47,15.46,15.46,0,0,1-3.57-1.46,17.7,17.7,0,0,1-3.64-2.79c-1.24-1.17-2.49-2.41-3.81-3.43a12.79,12.79,0,0,0-3.95-2.17,7.61,7.61,0,0,0-3-.38,5.51,5.51,0,0,0-.8.13l-.27.07.27.07c.17,0,.42.13.73.24a9.26,9.26,0,0,1,2.34,1.33,19.62,19.62,0,0,1,2.8,2.73,48.06,48.06,0,0,0,3.46,3.8,12.56,12.56,0,0,0,4.79,2.95,11.62,11.62,0,0,0,4.53.54,10.64,10.64,0,0,0,2.91-.65,7.91,7.91,0,0,0,.74-.32l.24-.12-.27,0A6.58,6.58,0,0,1,183.68,205.39Z"/><path class="cls-2" d="M191.85,108.9a16.26,16.26,0,0,1,2.71.48,15,15,0,0,1,3.57,1.45,17.79,17.79,0,0,1,3.64,2.79c1.24,1.17,2.49,2.42,3.81,3.44a13,13,0,0,0,3.95,2.16,7.43,7.43,0,0,0,3,.38,5.51,5.51,0,0,0,.8-.13l.27-.06-.27-.08c-.17,0-.42-.12-.73-.23a9.68,9.68,0,0,1-2.34-1.34,19.62,19.62,0,0,1-2.8-2.73,49.89,49.89,0,0,0-3.46-3.8,12.66,12.66,0,0,0-4.79-2.94,11.43,11.43,0,0,0-4.52-.55,11,11,0,0,0-2.92.65,7.91,7.91,0,0,0-.74.32l-.24.12.27,0Z"/><path class="cls-2" d="M161.56,141.9c.66-1,1.28-1.85,1.86-2.57.27-.38.55-.69.79-1s.44-.54.62-.74l.55-.66-.82.22a7.58,7.58,0,0,0-1,.34,9.72,9.72,0,0,0-1.22.56,13.61,13.61,0,0,0-2.9,2,14,14,0,0,0-4.33,7.39,14.22,14.22,0,0,0-.34,3.5,12.72,12.72,0,0,0,.11,1.35,6.58,6.58,0,0,0,.18,1c.12.54.21.83.21.83l.3-.8c.09-.25.2-.56.34-.91s.28-.74.48-1.17c.35-.85.82-1.83,1.33-2.87s1.15-2.15,1.81-3.3S160.92,142.88,161.56,141.9Z"/><path class="cls-2" d="M156,161.87c-.14-.35-.25-.66-.34-.91l-.3-.8s-.09.29-.21.83a6.74,6.74,0,0,0-.18,1,12.3,12.3,0,0,0-.11,1.34,14.22,14.22,0,0,0,.34,3.5,14.92,14.92,0,0,0,1.59,4,14.73,14.73,0,0,0,2.74,3.35,13.61,13.61,0,0,0,2.9,2,9.72,9.72,0,0,0,1.22.56,7.58,7.58,0,0,0,1,.34l.82.22-.55-.65c-.18-.2-.39-.45-.62-.75s-.52-.6-.79-1c-.58-.73-1.2-1.61-1.86-2.57s-1.31-2.05-2-3.19-1.26-2.26-1.81-3.3-1-2-1.33-2.87C156.23,162.62,156.1,162.22,156,161.87Z"/><path class="cls-2" d="M191.9,197.52a10.19,10.19,0,0,0,9.32-5.85,8.73,8.73,0,0,0,.61-1.65,5.18,5.18,0,0,0,.14-.63l-6.29,3.79-6.16,4a6.26,6.26,0,0,0,.63.15A9.09,9.09,0,0,0,191.9,197.52Z"/><path class="cls-2" d="M183.63,116.77a10.19,10.19,0,0,0-9.32,5.85,8.73,8.73,0,0,0-.61,1.65,5.18,5.18,0,0,0-.14.63l6.3-3.79,6.15-4-.63-.15A10,10,0,0,0,183.63,116.77Z"/><path class="cls-2" d="M173.56,189.39a5.18,5.18,0,0,0,.14.63,8.73,8.73,0,0,0,.61,1.65,10.19,10.19,0,0,0,9.32,5.85,9.09,9.09,0,0,0,1.75-.17,6.26,6.26,0,0,0,.63-.15l-6.15-4Z"/><path class="cls-2" d="M202,124.9a5.18,5.18,0,0,0-.14-.63,8.73,8.73,0,0,0-.61-1.65,10.19,10.19,0,0,0-9.32-5.85,10,10,0,0,0-1.75.17l-.63.15,6.16,4Z"/><path class="cls-2" d="M190.33,167.57a7.6,7.6,0,0,0,6.95-6.59,6.33,6.33,0,0,0,0-1.56c0-.36-.08-.56-.08-.56s-.15.14-.4.4-.61.61-1,1c-.85.82-2,1.78-3.08,2.85s-2.15,2.13-3,2.93c-.43.39-.8.74-1.07,1l-.42.38a4.41,4.41,0,0,0,.56.12A6.7,6.7,0,0,0,190.33,167.57Z"/><path class="cls-2" d="M185.2,146.72a7.6,7.6,0,0,0-6.95,6.59,6.33,6.33,0,0,0,0,1.56c0,.37.08.57.08.57l.4-.41c.24-.26.61-.61,1-1,.85-.82,2-1.78,3.08-2.85s2.15-2.13,3-2.92c.43-.4.8-.74,1.07-1l.42-.38s-.19,0-.56-.11A6.08,6.08,0,0,0,185.2,146.72Z"/><path class="cls-2" d="M185.83,166.06c-.87-.8-1.88-1.86-3-2.93s-2.23-2-3.08-2.85c-.41-.41-.78-.76-1-1l-.4-.4s0,.2-.08.56a6.33,6.33,0,0,0,0,1.56,7.6,7.6,0,0,0,6.95,6.59,6.68,6.68,0,0,0,1.56,0,4.41,4.41,0,0,0,.56-.12l-.42-.38C186.63,166.8,186.26,166.45,185.83,166.06Z"/><path class="cls-2" d="M189.7,148.24c.87.79,1.89,1.85,3,2.92s2.23,2,3.08,2.85c.41.41.78.76,1,1l.4.41s0-.2.08-.57a6.33,6.33,0,0,0,0-1.56,7.73,7.73,0,0,0-2.31-4.53,7.63,7.63,0,0,0-4.64-2.06,6.11,6.11,0,0,0-1.56.06c-.37.06-.56.11-.56.11l.42.38C188.9,147.5,189.27,147.84,189.7,148.24Z"/><path class="cls-2" d="M75.23,218.11c-.18-.19-.35-.4-.53-.6l.44.76c.29.5.7,1.22,1.24,2a51,51,0,0,0,4.45,6c.92,1.09,1.83,2.11,2.71,3A14.55,14.55,0,0,0,86,231.41a6.06,6.06,0,0,0,2,.87,5.6,5.6,0,0,0,.65.08h.24l-.21.13a3.93,3.93,0,0,1-.63.29,5.49,5.49,0,0,1-2.65.17,9.91,9.91,0,0,1-3.62-1.48,15.35,15.35,0,0,1-3.49-3c-.09-.1-.17-.22-.26-.32h0a14.54,14.54,0,0,1-1.59-.3,21,21,0,0,1-5.59-2.24,22.1,22.1,0,0,1-6.77-6.07A21.81,21.81,0,0,1,60,209v-.56l0-.19,0-.37q0-.37.12-.75c.09-.49.2-1,.31-1.45a22.39,22.39,0,0,1,.89-2.77,21.14,21.14,0,0,1,2.66-4.8A22.23,22.23,0,0,1,70.87,192a21.22,21.22,0,0,1,5.59-2.23c.69-.16,1.22-.26,1.59-.31h0l.26-.33a15.6,15.6,0,0,1,3.49-3.05,9.88,9.88,0,0,1,3.62-1.47,5.25,5.25,0,0,1,2.65.17,3.21,3.21,0,0,1,.63.29l.21.12-.24,0a4,4,0,0,0-.65.08,6,6,0,0,0-2,.86,14.65,14.65,0,0,0-2.45,2.1c-.88.9-1.79,1.91-2.71,3a51.82,51.82,0,0,0-4.45,6c-.54.84-.95,1.55-1.24,2.05s-.42.73-.44.77l.53-.61a14.76,14.76,0,0,1,7-4.05,14.56,14.56,0,0,1,5.28-.35c.61.09,1.08.18,1.39.26l.48.12-.49,0c-.32,0-.79.05-1.38.12A16.12,16.12,0,0,0,82.76,197a14.81,14.81,0,0,0-5.44,4.32,14.59,14.59,0,0,0-2,3.49,13.57,13.57,0,0,0-.64,2c-.08.35-.16.7-.22,1.06l-.08.54,0,.27v.11a14.42,14.42,0,0,0,8.38,11.84A16.43,16.43,0,0,0,87.5,222c.59.06,1.06.11,1.38.11l.49,0-.48.12a11.8,11.8,0,0,1-1.39.26,14.34,14.34,0,0,1-5.28-.35A14.76,14.76,0,0,1,75.23,218.11Zm-.59.29c0-.57,0-.89,0-.91a15.47,15.47,0,0,1-3.6-8.55v-.31h0v-.15l0-.17,0-.34.11-.67c.08-.44.18-.87.3-1.3a14.95,14.95,0,0,1,3.11-5.89s0-.34,0-.91a14.42,14.42,0,0,1,.2-2.5,15.66,15.66,0,0,1,3-7q-.48.2-1.26.57a24.76,24.76,0,0,0-4.83,3.11,24.2,24.2,0,0,0-5.4,6.25,22.42,22.42,0,0,0-2,4.34c-.26.79-.49,1.6-.68,2.44-.09.42-.18.84-.25,1.27l-.1.64,0,.33,0,.13A23.21,23.21,0,0,0,66.4,218a24.37,24.37,0,0,0,5.4,6.25,24.63,24.63,0,0,0,4.83,3.1c.52.25.94.44,1.26.58a15.75,15.75,0,0,1-3-7A14.42,14.42,0,0,1,74.64,218.4Z"/><path class="cls-2" d="M91.57,232.79a4.64,4.64,0,0,1-.64-.29l-.2-.13H91a5.48,5.48,0,0,0,.64-.08,6,6,0,0,0,2-.87,14.2,14.2,0,0,0,2.46-2.09c.88-.9,1.79-1.92,2.71-3a53.35,53.35,0,0,0,4.45-6c.53-.83,1-1.55,1.24-2l.44-.77c-.18.21-.35.42-.54.61a14.78,14.78,0,0,1-7,4,14.39,14.39,0,0,1-5.29.35,11.8,11.8,0,0,1-1.39-.26l-.47-.12.49,0c.31,0,.78-.05,1.37-.11a16.26,16.26,0,0,0,4.74-1.38,14.91,14.91,0,0,0,5.44-4.32,14.69,14.69,0,0,0,2-3.5,14.42,14.42,0,0,0,.64-2c.08-.34.15-.7.21-1.06l.08-.53,0-.28,0-.11a15,15,0,0,0-3-7.51A14.81,14.81,0,0,0,96.88,197a16,16,0,0,0-4.74-1.38c-.59-.07-1.06-.11-1.37-.12l-.49,0,.47-.12c.31-.08.78-.17,1.39-.26a14.61,14.61,0,0,1,5.29.35,14.78,14.78,0,0,1,7,4.05,7.72,7.72,0,0,1,.53.61l-.43-.77c-.29-.5-.71-1.21-1.24-2.05a54.28,54.28,0,0,0-4.45-6c-.92-1.09-1.83-2.1-2.71-3a14.29,14.29,0,0,0-2.46-2.1,5.93,5.93,0,0,0-2-.86,3.91,3.91,0,0,0-.64-.08l-.24,0,.2-.12a3.68,3.68,0,0,1,.64-.29,5.21,5.21,0,0,1,2.64-.17,9.92,9.92,0,0,1,3.63,1.47,15.56,15.56,0,0,1,3.48,3.05c.1.11.17.22.26.33h0c.37.05.91.15,1.59.31a21.09,21.09,0,0,1,5.59,2.23,22.37,22.37,0,0,1,6.78,6.07,21.94,21.94,0,0,1,4.08,10.52V209h0v.16l0,.19,0,.38-.12.74c-.09.49-.2,1-.32,1.46a23,23,0,0,1-.89,2.77,21.21,21.21,0,0,1-2.65,4.79,22.24,22.24,0,0,1-6.78,6.07,20.84,20.84,0,0,1-5.59,2.24,14.12,14.12,0,0,1-1.59.3h0c-.09.1-.16.22-.26.32a15.31,15.31,0,0,1-3.48,3A10,10,0,0,1,94.21,233,5.44,5.44,0,0,1,91.57,232.79Zm10.18-4.9c.33-.14.75-.33,1.26-.58a25,25,0,0,0,4.84-3.1,24.56,24.56,0,0,0,5.4-6.25,22.21,22.21,0,0,0,2-4.35,24.22,24.22,0,0,0,.69-2.43c.09-.42.17-.85.24-1.27l.1-.65,0-.33v-.13a23.16,23.16,0,0,0-3.09-9.17,24.39,24.39,0,0,0-5.4-6.25,25.08,25.08,0,0,0-4.84-3.11q-.77-.37-1.26-.57a15.66,15.66,0,0,1,3,7,13.48,13.48,0,0,1,.2,2.5c0,.57,0,.88,0,.9a15.46,15.46,0,0,1,3.59,8.55V209h0v.15l0,.17,0,.34-.1.67c-.09.44-.19.88-.3,1.31a15.56,15.56,0,0,1-.9,2.45,15.12,15.12,0,0,1-2.21,3.44s0,.33,0,.91a13.48,13.48,0,0,1-.2,2.5A15.75,15.75,0,0,1,101.75,227.89Z"/><path class="cls-2" d="M95,177.09a17.46,17.46,0,0,1,11.53,9.49,18.93,18.93,0,0,1,.92,2.37l.28.93a8.25,8.25,0,0,0,.23-1,10.21,10.21,0,0,0,.16-2.74,11.77,11.77,0,0,0-1-4l-.11-.22.12,0a8.32,8.32,0,0,1,4.1.45,22.5,22.5,0,0,1,11,7.57,22,22,0,0,1,4.57,12.5,21.33,21.33,0,0,1-.19,4.29c-.06.52-.15.91-.19,1.18s-.08.42-.08.42l.21-.37c.13-.24.34-.6.55-1.08a17,17,0,0,0,1.34-4.34,18.69,18.69,0,0,0-.08-6.86c-.09-.43-.2-.88-.32-1.33.28.6.59,1.17.9,1.71a27.42,27.42,0,0,0,4.75,5.83c1.53,1.46,2.86,2.51,3.77,3.23s1.45,1.1,1.45,1.1l-1.08-1.46c-.69-.93-1.72-2.27-2.89-3.94a36.49,36.49,0,0,1-3.54-6,18.47,18.47,0,0,1-1.79-7.83,7.05,7.05,0,0,1,1-3.47,2.4,2.4,0,0,1,2.19-1.28,3.81,3.81,0,0,1,2.49,1.26,2.68,2.68,0,0,1,.7,2.31,2.39,2.39,0,0,1-1.21,1.72,2.36,2.36,0,0,1-2.76-.66,2.54,2.54,0,0,1-.24-.4,1.74,1.74,0,0,0,.12.46,2.38,2.38,0,0,0,.88,1.11,3,3,0,0,0,2.32.48,3.56,3.56,0,0,0,2.45-2.21,4.29,4.29,0,0,0,.3-2,5,5,0,0,0-.73-2.09,6,6,0,0,0-3.93-2.7,4.94,4.94,0,0,0-2.89.34,5.75,5.75,0,0,0-2.25,1.87,9.2,9.2,0,0,0-1.71,5.19,15.39,15.39,0,0,0,.59,4.47,18.29,18.29,0,0,0-2.11-3.41,19,19,0,0,0-6.64-5.35,18.28,18.28,0,0,0-6.62-1.82,8.34,8.34,0,0,0-4.58.69l-.16.1a11.6,11.6,0,0,0-11.66-6.06,10.35,10.35,0,0,0-2.65.67,9.19,9.19,0,0,0-.9.42l1,.09A18.15,18.15,0,0,1,95,177.09Z"/><path class="cls-2" d="M56.17,180.94c3.63,1.38,7.83.36,11.15-1.72a26.16,26.16,0,0,0,4.44-3.47c1.29-1.25,2.41-2.48,3.48-3.63a36.14,36.14,0,0,1,6-5.51,13.73,13.73,0,0,1,2.7-1.46,5.48,5.48,0,0,1,2.25-.33,2.81,2.81,0,0,1,1.36.49,4.32,4.32,0,0,1,.4.36,2.67,2.67,0,0,0-1.65-1.35,6,6,0,0,0-2.6-.18,13.05,13.05,0,0,0-3.25,1,29,29,0,0,0-7.13,5,53.89,53.89,0,0,1-7.7,6.28,14.42,14.42,0,0,1-4.37,1.88,8.63,8.63,0,0,1-4.13,0,2.5,2.5,0,0,1-2-2,3.46,3.46,0,0,1,.89-2.82,6.22,6.22,0,0,1,4.69-1.78,1.11,1.11,0,0,1,.68.31,1,1,0,0,1,.22.53.66.66,0,0,1-.17.47.7.7,0,0,0,.31-.46,1.12,1.12,0,0,0-.11-.71,1.49,1.49,0,0,0-.79-.63,6.85,6.85,0,0,0-5.93,1,5.29,5.29,0,0,0-2,4.17,4.57,4.57,0,0,0,.92,2.75A5.6,5.6,0,0,0,56.17,180.94Z"/><path class="cls-2" d="M92.1,165.31a2.82,2.82,0,0,1,1.37-.49,5.52,5.52,0,0,1,2.25.33,13.68,13.68,0,0,1,2.69,1.46,35.36,35.36,0,0,1,6,5.51c1.07,1.15,2.19,2.38,3.49,3.63a26.16,26.16,0,0,0,4.44,3.47c3.32,2.08,7.52,3.1,11.14,1.72a5.69,5.69,0,0,0,2.41-1.76,4.56,4.56,0,0,0,.91-2.75,5.26,5.26,0,0,0-2-4.17,6.83,6.83,0,0,0-5.92-1,1.42,1.42,0,0,0-.79.63,1.06,1.06,0,0,0-.11.71.67.67,0,0,0,.31.46.61.61,0,0,1-.17-.47.89.89,0,0,1,.22-.53,1.08,1.08,0,0,1,.67-.31,6.22,6.22,0,0,1,4.69,1.78,3.5,3.5,0,0,1,.9,2.82,2.51,2.51,0,0,1-2,2,8.63,8.63,0,0,1-4.13,0,14.53,14.53,0,0,1-4.37-1.88,53.89,53.89,0,0,1-7.7-6.28,28.94,28.94,0,0,0-7.12-5,13.25,13.25,0,0,0-3.26-1,5.91,5.91,0,0,0-2.59.18,2.88,2.88,0,0,0-1.35.89,3.83,3.83,0,0,0-.31.46A4.32,4.32,0,0,1,92.1,165.31Z"/><path class="cls-2" d="M44.74,200.8c-1.18,1.67-2.2,3-2.9,3.94l-1.07,1.46s.52-.38,1.44-1.1A48.79,48.79,0,0,0,46,201.87,27.12,27.12,0,0,0,50.73,196q.48-.81.9-1.71c-.12.45-.23.9-.31,1.33a18.93,18.93,0,0,0-.09,6.86,17,17,0,0,0,1.34,4.34c.21.48.42.84.55,1.08l.21.37-.07-.42c0-.27-.14-.66-.2-1.18a22.94,22.94,0,0,1-.19-4.29,22,22,0,0,1,4.58-12.5,22.44,22.44,0,0,1,11-7.57,8.33,8.33,0,0,1,4.1-.45l.13,0-.12.22a11.51,11.51,0,0,0-1,4,10.29,10.29,0,0,0,.15,2.74,9.34,9.34,0,0,0,.24,1l.27-.93a17.49,17.49,0,0,1,12.45-11.86,18,18,0,0,1,2.5-.45l1-.09a9.58,9.58,0,0,0-.89-.42,10.33,10.33,0,0,0-2.66-.67,11.63,11.63,0,0,0-4.15.24,11.37,11.37,0,0,0-7.51,5.82l-.16-.1a8.3,8.3,0,0,0-4.57-.69,18.33,18.33,0,0,0-6.63,1.82,18.93,18.93,0,0,0-6.63,5.35,18.29,18.29,0,0,0-2.11,3.41,15.73,15.73,0,0,0,.59-4.47,9.35,9.35,0,0,0-1.71-5.19,5.78,5.78,0,0,0-2.26-1.87,4.9,4.9,0,0,0-2.88-.34,6.06,6.06,0,0,0-3.94,2.7,5,5,0,0,0-.72,2.09,4.16,4.16,0,0,0,.29,2,3.6,3.6,0,0,0,2.46,2.21A3,3,0,0,0,46.9,188a2.41,2.41,0,0,0,.89-1.11,1.92,1.92,0,0,0,.11-.46,1.5,1.5,0,0,1-.23.4,2.26,2.26,0,0,1-1,.71,2.3,2.3,0,0,1-1.76-.05,2.39,2.39,0,0,1-1.21-1.72,2.71,2.71,0,0,1,.7-2.31,3.83,3.83,0,0,1,2.5-1.26,2.41,2.41,0,0,1,2.19,1.28,7.16,7.16,0,0,1,1,3.47,18.78,18.78,0,0,1-1.79,7.83A37.2,37.2,0,0,1,44.74,200.8Z"/><path class="cls-2" d="M65,171.25a7.86,7.86,0,0,0,3-.38,12.91,12.91,0,0,0,4-2.17c1.32-1,2.57-2.26,3.81-3.43a17.44,17.44,0,0,1,3.64-2.79A15.4,15.4,0,0,1,83,161a17.44,17.44,0,0,1,2.72-.47c.33,0,.59-.05.77-.06h.28l-.25-.12a6.53,6.53,0,0,0-.73-.32,10.72,10.72,0,0,0-2.92-.65,11.59,11.59,0,0,0-4.52.54,12.69,12.69,0,0,0-4.8,2.94c-1.4,1.33-2.46,2.68-3.45,3.81a19.62,19.62,0,0,1-2.8,2.73A9.59,9.59,0,0,1,65,170.74c-.31.11-.56.2-.73.24l-.27.07.27.07A5.57,5.57,0,0,0,65,171.25Z"/><path class="cls-2" d="M93.91,160.55a17.35,17.35,0,0,1,2.71.47,15.46,15.46,0,0,1,3.57,1.46,18,18,0,0,1,3.64,2.79c1.24,1.17,2.48,2.41,3.8,3.43a13,13,0,0,0,4,2.17,7.8,7.8,0,0,0,3,.38,5.76,5.76,0,0,0,.8-.13l.27-.07-.27-.07a7.45,7.45,0,0,1-.73-.24,9.41,9.41,0,0,1-2.34-1.33,19.64,19.64,0,0,1-2.81-2.73,49.57,49.57,0,0,0-3.45-3.81,12.66,12.66,0,0,0-4.79-2.94,11.62,11.62,0,0,0-4.53-.54,10.55,10.55,0,0,0-2.91.65,7.91,7.91,0,0,0-.74.32l-.25.12h.28C93.31,160.5,93.57,160.51,93.91,160.55Z"/><path class="cls-2" d="M63.62,193.54c.66-1,1.28-1.85,1.85-2.57.28-.38.56-.69.79-1s.45-.55.63-.75l.55-.65-.83.22a9.16,9.16,0,0,0-1,.33c-.37.16-.79.32-1.23.56a14.63,14.63,0,0,0-2.89,2,15,15,0,0,0-2.74,3.36,14.67,14.67,0,0,0-1.59,4,14.34,14.34,0,0,0-.34,3.51A10.22,10.22,0,0,0,57,204a6.74,6.74,0,0,0,.18,1c.12.54.21.83.21.83l.3-.8c.08-.25.19-.56.34-.91s.28-.75.48-1.17c.34-.86.81-1.83,1.33-2.88s1.15-2.14,1.81-3.29S63,194.52,63.62,193.54Z"/><path class="cls-2" d="M122.43,199.1a15,15,0,0,0-1.58-4,14.23,14.23,0,0,0-5.64-5.37c-.43-.24-.86-.4-1.22-.56a9.25,9.25,0,0,0-1-.33l-.83-.22.55.65c.18.2.4.45.63.75s.52.6.79,1c.57.72,1.2,1.61,1.86,2.57s1.31,2.05,2,3.19,1.26,2.25,1.8,3.29,1,2,1.34,2.88c.2.42.33.82.47,1.17s.26.66.35.91l.3.8s.08-.29.21-.83a8.56,8.56,0,0,0,.17-1,8.74,8.74,0,0,0,.11-1.34A13.42,13.42,0,0,0,122.43,199.1Z"/><path class="cls-2" d="M85.68,168.42a10.2,10.2,0,0,0-9.31,5.84,8.53,8.53,0,0,0-.61,1.65c-.11.41-.15.64-.15.64l6.3-3.79,6.16-4s-.23-.07-.63-.15A9.12,9.12,0,0,0,85.68,168.42Z"/><path class="cls-2" d="M104,176.55s0-.23-.14-.64a9.27,9.27,0,0,0-.61-1.65A10.2,10.2,0,0,0,94,168.42a9.09,9.09,0,0,0-1.75.17,6.26,6.26,0,0,0-.63.15l6.15,4Z"/><path class="cls-2" d="M87.26,198.37a7.56,7.56,0,0,0-7,6.58,7,7,0,0,0,0,1.56c0,.37.09.57.09.57l.4-.4c.24-.26.6-.61,1-1,.84-.82,2-1.78,3.08-2.86s2.15-2.12,3-2.92c.42-.39.8-.74,1.07-1l.42-.38a5,5,0,0,0-.56-.12A6.7,6.7,0,0,0,87.26,198.37Z"/><path class="cls-2" d="M91.76,199.88c.87.8,1.88,1.86,3,2.92s2.24,2,3.08,2.86c.42.41.78.76,1,1l.41.4s0-.2.08-.57a5.94,5.94,0,0,0,0-1.56,7.56,7.56,0,0,0-7-6.58,6.59,6.59,0,0,0-1.55,0,5,5,0,0,0-.57.12s.16.13.43.38S91.33,199.49,91.76,199.88Z"/><path class="cls-2" d="M-6.38,181.14a3.93,3.93,0,0,1-.63-.29l-.2-.12.23,0a4,4,0,0,0,.65-.08,6,6,0,0,0,2-.86,14.68,14.68,0,0,0,2.46-2.1c.87-.9,1.78-1.91,2.71-3a52.8,52.8,0,0,0,4.44-6c.54-.84.95-1.55,1.24-2.05l.44-.77c-.17.2-.35.41-.53.6a14.79,14.79,0,0,1-7,4.06,14.29,14.29,0,0,1-5.28.34,12.22,12.22,0,0,1-1.39-.25l-.48-.12.49,0c.32,0,.79-.05,1.38-.12A16,16,0,0,0-1.06,169a14.91,14.91,0,0,0,5.44-4.32,14.62,14.62,0,0,0,2-3.49,15.27,15.27,0,0,0,.63-2c.09-.35.16-.7.22-1.06l.08-.54,0-.27v-.11a14.9,14.9,0,0,0-2.94-7.52,14.91,14.91,0,0,0-5.44-4.32,16.34,16.34,0,0,0-4.74-1.38,12.94,12.94,0,0,0-1.38-.11l-.49,0,.48-.12a10,10,0,0,1,1.39-.26,14.29,14.29,0,0,1,5.28.34,14.79,14.79,0,0,1,7,4.06c.18.19.36.4.53.6l-.44-.76c-.29-.5-.7-1.22-1.24-2.06a53.7,53.7,0,0,0-4.44-6c-.93-1.09-1.84-2.1-2.71-3a14.12,14.12,0,0,0-2.46-2.09,6.06,6.06,0,0,0-2-.87,4,4,0,0,0-.65-.08h-.23l.2-.13a3.93,3.93,0,0,1,.63-.29A5.5,5.5,0,0,1-3.73,133a9.91,9.91,0,0,1,3.62,1.48,14.91,14.91,0,0,1,3.49,3c.09.1.17.21.26.32h0a14.54,14.54,0,0,1,1.59.3,21,21,0,0,1,5.59,2.24,22.19,22.19,0,0,1,6.78,6.06A21.93,21.93,0,0,1,21.68,157v.38h0v.17l0,.19-.06.37c0,.25-.07.5-.12.74-.08.5-.19,1-.31,1.46a22.39,22.39,0,0,1-.89,2.77,21.5,21.5,0,0,1-2.65,4.8,22.19,22.19,0,0,1-6.78,6.06,21,21,0,0,1-5.59,2.24c-.69.16-1.22.26-1.59.31h0l-.26.33a15.09,15.09,0,0,1-3.49,3,9.91,9.91,0,0,1-3.62,1.48A5.38,5.38,0,0,1-6.38,181.14Zm10.19-4.9q.48-.19,1.26-.57a24.76,24.76,0,0,0,4.83-3.11,24.18,24.18,0,0,0,5.4-6.25,22.42,22.42,0,0,0,2-4.34,24.37,24.37,0,0,0,.68-2.44c.09-.42.18-.84.25-1.27l.1-.65,0-.32,0-.13A23.06,23.06,0,0,0,15.3,148a24.18,24.18,0,0,0-5.4-6.25,24.76,24.76,0,0,0-4.83-3.11c-.52-.24-.94-.44-1.26-.57a15.75,15.75,0,0,1,3.05,7,14.42,14.42,0,0,1,.2,2.5c0,.57,0,.89,0,.91A15.47,15.47,0,0,1,10.61,157v.32h0v.15l0,.17,0,.34-.11.66c-.08.45-.18.88-.29,1.31a16.22,16.22,0,0,1-.9,2.45A15.24,15.24,0,0,1,7,165.84s0,.33,0,.91a14.42,14.42,0,0,1-.2,2.5A15.7,15.7,0,0,1,3.81,176.24Z"/><path class="cls-2" d="M-2.91,125.45a17.75,17.75,0,0,1,6.83,3.45,17.78,17.78,0,0,1,4.69,6,17.2,17.2,0,0,1,.93,2.36c.17.6.27.93.27.93a9.34,9.34,0,0,0,.24-1,10.6,10.6,0,0,0,.16-2.73,11.82,11.82,0,0,0-1-4l-.12-.21a.61.61,0,0,1,.13,0,8.31,8.31,0,0,1,4.1.44,22.44,22.44,0,0,1,11,7.57,22,22,0,0,1,4.58,12.5,22.94,22.94,0,0,1-.19,4.29c-.06.52-.15.91-.2,1.19l-.07.41.21-.36c.13-.25.34-.6.55-1.09a17,17,0,0,0,1.34-4.33,18.93,18.93,0,0,0-.09-6.86c-.08-.44-.19-.89-.31-1.34.28.6.58,1.18.9,1.72a27.37,27.37,0,0,0,4.75,5.83c1.53,1.45,2.85,2.5,3.77,3.22s1.44,1.1,1.44,1.1l-1.07-1.46c-.7-.93-1.72-2.26-2.9-3.93a37.64,37.64,0,0,1-3.54-6,18.65,18.65,0,0,1-1.78-7.83,7,7,0,0,1,1-3.47,2.39,2.39,0,0,1,2.18-1.29,3.86,3.86,0,0,1,2.5,1.27,2.69,2.69,0,0,1,.7,2.3,2.17,2.17,0,0,1-3,1.78,2.17,2.17,0,0,1-1-.72,2.35,2.35,0,0,1-.24-.39,2.19,2.19,0,0,0,.11.46,2.52,2.52,0,0,0,.89,1.1,3,3,0,0,0,2.32.48,3.56,3.56,0,0,0,2.45-2.21,4.26,4.26,0,0,0,.3-2,5.08,5.08,0,0,0-.73-2.09,6,6,0,0,0-3.93-2.71,4.86,4.86,0,0,0-2.89.35A5.67,5.67,0,0,0,30.06,130a9.32,9.32,0,0,0-1.7,5.2,15.83,15.83,0,0,0,.58,4.47,17.54,17.54,0,0,0-2.11-3.42,19.06,19.06,0,0,0-6.63-5.35,18.3,18.3,0,0,0-6.62-1.81,8.26,8.26,0,0,0-4.58.68l-.16.1A11.72,11.72,0,0,0,6,126.37a11.73,11.73,0,0,0-4.66-2.32,11.69,11.69,0,0,0-4.16-.24,10.38,10.38,0,0,0-2.66.68,8.46,8.46,0,0,0-.89.41l1,.09A17,17,0,0,1-2.91,125.45Z"/><path class="cls-2" d="M25.53,185c-3.63-1.38-7.83-.36-11.15,1.71a26.6,26.6,0,0,0-4.44,3.48c-1.29,1.24-2.41,2.48-3.48,3.63a35.75,35.75,0,0,1-6,5.51,12.89,12.89,0,0,1-2.7,1.45,5.32,5.32,0,0,1-2.24.34,2.71,2.71,0,0,1-1.37-.5,3.67,3.67,0,0,1-.4-.35,2.94,2.94,0,0,0,.3.46,2.93,2.93,0,0,0,1.35.89,5.83,5.83,0,0,0,2.6.17,12.27,12.27,0,0,0,3.25-1,28.66,28.66,0,0,0,7.13-5,53.89,53.89,0,0,1,7.7-6.28,14.53,14.53,0,0,1,4.37-1.88,8.63,8.63,0,0,1,4.13,0,2.49,2.49,0,0,1,2,2,3.46,3.46,0,0,1-.89,2.82A6.22,6.22,0,0,1,21,194.24a1.08,1.08,0,0,1-.67-.31.83.83,0,0,1-.22-.53.55.55,0,0,1,.17-.47.63.63,0,0,0-.31.46,1.11,1.11,0,0,0,.1.71,1.49,1.49,0,0,0,.79.63,6.85,6.85,0,0,0,5.93-1,5.26,5.26,0,0,0,2-4.17,4.57,4.57,0,0,0-.92-2.75A5.6,5.6,0,0,0,25.53,185Z"/><path class="cls-2" d="M-5.84,113.67a2.81,2.81,0,0,1,1.37-.5,5.32,5.32,0,0,1,2.24.34A13.37,13.37,0,0,1,.47,115a35.85,35.85,0,0,1,6,5.52c1.07,1.15,2.19,2.38,3.48,3.62a26.6,26.6,0,0,0,4.44,3.48c3.32,2.07,7.52,3.1,11.15,1.71a5.6,5.6,0,0,0,2.4-1.76,4.56,4.56,0,0,0,.92-2.74,5.27,5.27,0,0,0-2-4.18,6.85,6.85,0,0,0-5.93-1,1.46,1.46,0,0,0-.79.64,1.08,1.08,0,0,0-.1.7.6.6,0,0,0,.31.46.55.55,0,0,1-.17-.47.83.83,0,0,1,.22-.53,1.08,1.08,0,0,1,.67-.31,6.22,6.22,0,0,1,4.69,1.78,3.46,3.46,0,0,1,.89,2.82,2.48,2.48,0,0,1-2,2,8.62,8.62,0,0,1-4.13,0,15,15,0,0,1-4.37-1.88,54.64,54.64,0,0,1-7.7-6.29,28.92,28.92,0,0,0-7.13-5,12.65,12.65,0,0,0-3.25-1,5.83,5.83,0,0,0-2.6.17,2.94,2.94,0,0,0-1.35.9,3.29,3.29,0,0,0-.3.45A3.67,3.67,0,0,1-5.84,113.67Z"/><path class="cls-2" d="M37,165.14c1.18-1.67,2.2-3,2.9-3.94l1.07-1.46s-.52.38-1.44,1.1a48.79,48.79,0,0,0-3.77,3.23A27.12,27.12,0,0,0,31,169.9a18.31,18.31,0,0,0-.9,1.71c.12-.45.23-.9.31-1.34a18.87,18.87,0,0,0,.09-6.85,17,17,0,0,0-1.34-4.34c-.21-.48-.42-.84-.55-1.08l-.21-.37.07.42c0,.27.14.66.2,1.18a22.94,22.94,0,0,1,.19,4.29A22,22,0,0,1,24.25,176a22.44,22.44,0,0,1-11,7.57,8.33,8.33,0,0,1-4.1.45l-.13,0,.12-.22a11.83,11.83,0,0,0,1-4,10.65,10.65,0,0,0-.16-2.74,9.34,9.34,0,0,0-.24-1s-.1.33-.27.93a17.76,17.76,0,0,1-.93,2.37,17.75,17.75,0,0,1-4.69,6,17.93,17.93,0,0,1-6.83,3.46,18.15,18.15,0,0,1-2.49.45l-1,.09a9.58,9.58,0,0,0,.89.42,10.44,10.44,0,0,0,2.66.67,11.69,11.69,0,0,0,4.16-.24A11.83,11.83,0,0,0,6,187.93a11.75,11.75,0,0,0,2.84-3.51l.16.1a8.26,8.26,0,0,0,4.58.68,18.3,18.3,0,0,0,6.62-1.81A19,19,0,0,0,26.83,178a17.54,17.54,0,0,0,2.11-3.42,15.86,15.86,0,0,0-.58,4.48,9.29,9.29,0,0,0,1.7,5.19,5.67,5.67,0,0,0,2.26,1.86,4.86,4.86,0,0,0,2.89.35,6,6,0,0,0,3.93-2.71,5,5,0,0,0,.73-2.08,4.29,4.29,0,0,0-.3-2,3.56,3.56,0,0,0-2.45-2.21,3,3,0,0,0-2.32.48,2.52,2.52,0,0,0-.89,1.1,2,2,0,0,0-.11.47,1.82,1.82,0,0,1,.24-.4,2.24,2.24,0,0,1,1-.72,2.35,2.35,0,0,1,1.76.06A2.37,2.37,0,0,1,38,180.19a2.69,2.69,0,0,1-.7,2.3,3.82,3.82,0,0,1-2.5,1.27,2.4,2.4,0,0,1-2.18-1.28,7,7,0,0,1-1-3.47,18.62,18.62,0,0,1,1.78-7.83A36.77,36.77,0,0,1,37,165.14Z"/><path class="cls-2" d="M16.66,194.69a7.61,7.61,0,0,0-3,.38,13,13,0,0,0-4,2.17c-1.32,1-2.56,2.26-3.81,3.43a18,18,0,0,1-3.63,2.79,15.64,15.64,0,0,1-3.57,1.46,17.44,17.44,0,0,1-2.72.47,6.43,6.43,0,0,1-.77.05l-.28,0,.25.12a7.5,7.5,0,0,0,.73.32,10.72,10.72,0,0,0,2.92.65A11.59,11.59,0,0,0,3.33,206a12.52,12.52,0,0,0,4.8-2.95,49.78,49.78,0,0,0,3.45-3.8,19.64,19.64,0,0,1,2.81-2.73,9.23,9.23,0,0,1,2.33-1.33,7.47,7.47,0,0,1,.74-.24l.26-.07-.27-.07A5.32,5.32,0,0,0,16.66,194.69Z"/><path class="cls-2" d="M-4,108.9a16.52,16.52,0,0,1,2.72.48,15.14,15.14,0,0,1,3.57,1.45,18,18,0,0,1,3.63,2.79c1.25,1.17,2.49,2.42,3.81,3.44a13,13,0,0,0,4,2.16,7.43,7.43,0,0,0,3,.38,5.32,5.32,0,0,0,.79-.13l.27-.06-.26-.08a7,7,0,0,1-.74-.23,9.47,9.47,0,0,1-2.33-1.34A19.64,19.64,0,0,1,11.58,115c-1-1.12-2.05-2.48-3.45-3.8a12.62,12.62,0,0,0-4.8-2.94,11.43,11.43,0,0,0-4.52-.55,11.12,11.12,0,0,0-2.92.65,7.5,7.5,0,0,0-.73.32l-.25.12.28,0Z"/><path class="cls-2" d="M24.72,162a8.56,8.56,0,0,0-.17-1c-.13-.54-.22-.83-.22-.83l-.3.8c-.08.25-.19.56-.34.91s-.28.75-.47,1.17c-.35.85-.82,1.83-1.34,2.87s-1.14,2.15-1.81,3.3-1.34,2.21-2,3.19-1.28,1.84-1.85,2.57c-.28.38-.56.69-.79,1s-.45.55-.63.75l-.55.65.83-.22a7.5,7.5,0,0,0,.95-.34,9.19,9.19,0,0,0,1.23-.56,13.83,13.83,0,0,0,2.89-2,14.47,14.47,0,0,0,2.74-3.35,14.61,14.61,0,0,0,1.59-4,13.75,13.75,0,0,0,.34-3.5A10.22,10.22,0,0,0,24.72,162Z"/><path class="cls-2" d="M24.49,147.46a14,14,0,0,0-4.33-7.39,13.83,13.83,0,0,0-2.89-2A9.19,9.19,0,0,0,16,137.5a7.5,7.5,0,0,0-.95-.34l-.83-.22.55.66c.18.2.4.44.63.74s.51.61.79,1c.57.72,1.19,1.6,1.85,2.57s1.32,2,2,3.18,1.27,2.26,1.81,3.3,1,2,1.34,2.87c.19.43.33.82.47,1.17s.26.66.34.91c.2.51.3.8.3.8s.09-.29.22-.83a8.35,8.35,0,0,0,.17-1,10.53,10.53,0,0,0,.11-1.35A13.75,13.75,0,0,0,24.49,147.46Z"/><path class="cls-2" d="M-4,197.52A10.43,10.43,0,0,0,1.53,196a10.47,10.47,0,0,0,3.81-4.29A9.5,9.5,0,0,0,6,190c.1-.4.14-.63.14-.63l-6.3,3.79-6.15,4a6.26,6.26,0,0,0,.63.15A9,9,0,0,0-4,197.52Z"/><path class="cls-2" d="M6.09,124.9s0-.23-.14-.63a9.5,9.5,0,0,0-.61-1.65,10.53,10.53,0,0,0-3.81-4.29A10.43,10.43,0,0,0-4,116.77a9.87,9.87,0,0,0-1.75.17l-.63.15,6.15,4Z"/><path class="cls-2" d="M-5.56,167.57a7.68,7.68,0,0,0,4.65-2.06A7.66,7.66,0,0,0,1.39,161a7,7,0,0,0,0-1.56,4.7,4.7,0,0,0-.09-.56l-.4.4c-.24.26-.6.61-1,1-.84.82-1.95,1.78-3.08,2.85s-2.15,2.13-3,2.93c-.43.39-.81.74-1.08,1l-.42.38a5,5,0,0,0,.56.12A6.7,6.7,0,0,0-5.56,167.57Z"/><path class="cls-2" d="M-6.18,148.24c.86.79,1.88,1.85,3,2.92s2.24,2,3.08,2.85c.42.41.78.76,1,1l.4.41a4.68,4.68,0,0,0,.09-.57,7,7,0,0,0,0-1.56,7.71,7.71,0,0,0-2.3-4.53,7.68,7.68,0,0,0-4.65-2.06,6.11,6.11,0,0,0-1.56.06c-.36.06-.56.11-.56.11l.42.38C-7,147.5-6.61,147.84-6.18,148.24Z"/><path class="cls-2" d="M173.18,63.17c-.19-.19-.36-.4-.54-.6l.44.76c.29.5.7,1.22,1.24,2.06a53.94,53.94,0,0,0,4.45,6c.92,1.09,1.83,2.1,2.71,3a14.09,14.09,0,0,0,2.45,2.09,6,6,0,0,0,2,.87,3.91,3.91,0,0,0,.64.08h.24l-.21.13a3.93,3.93,0,0,1-.63.29,5.44,5.44,0,0,1-2.64.17,10,10,0,0,1-3.63-1.48,15.32,15.32,0,0,1-3.49-3.05,3.92,3.92,0,0,1-.25-.32h0a15,15,0,0,1-1.59-.3,21.09,21.09,0,0,1-5.59-2.24A21.85,21.85,0,0,1,158,54v-.38h0v-.17l0-.19.05-.37.12-.74c.09-.5.2-1,.32-1.46a22.39,22.39,0,0,1,.89-2.77,21.5,21.5,0,0,1,2.65-4.8,22.06,22.06,0,0,1,6.77-6.06,21.09,21.09,0,0,1,5.59-2.24c.69-.16,1.23-.26,1.59-.31h0l.25-.33a15.51,15.51,0,0,1,3.49-3,10,10,0,0,1,3.63-1.48,5.32,5.32,0,0,1,2.64.17,3.93,3.93,0,0,1,.63.29l.21.12-.24,0a3.91,3.91,0,0,0-.64.08,6,6,0,0,0-2,.86,14.65,14.65,0,0,0-2.45,2.1c-.88.9-1.79,1.91-2.71,3a53,53,0,0,0-4.45,6c-.54.84-.95,1.55-1.24,2s-.41.73-.44.77c.18-.2.35-.41.54-.6a14.76,14.76,0,0,1,7-4.06,14.56,14.56,0,0,1,5.28-.35c.62.09,1.08.18,1.4.26l.47.12-.49,0q-.48,0-1.38.12A16,16,0,0,0,180.71,42a14.91,14.91,0,0,0-5.44,4.32,14.62,14.62,0,0,0-2,3.49,14.85,14.85,0,0,0-.64,2c-.08.35-.15.7-.22,1.06l-.08.54,0,.27v.11a14.46,14.46,0,0,0,8.39,11.84,16.3,16.3,0,0,0,4.73,1.38,13.13,13.13,0,0,0,1.38.11l.49,0-.47.12a12.05,12.05,0,0,1-1.4.26,14.12,14.12,0,0,1-5.28-.35A14.65,14.65,0,0,1,173.18,63.17Zm-.6.29c0-.57,0-.89,0-.91A15.4,15.4,0,0,1,169,54v-.32h0v-.15l0-.17,0-.34.11-.66c.09-.45.18-.88.3-1.31a14,14,0,0,1,.9-2.45,14.58,14.58,0,0,1,2.21-3.44s0-.34,0-.91a15.5,15.5,0,0,1,.2-2.5,15.73,15.73,0,0,1,3.06-7q-.5.2-1.26.57a25.08,25.08,0,0,0-4.84,3.11,24.2,24.2,0,0,0-5.4,6.25,22.42,22.42,0,0,0-2,4.34c-.26.79-.49,1.61-.68,2.44-.09.42-.18.84-.24,1.27l-.1.65-.05.32v.13A23.21,23.21,0,0,0,164.34,63a24.37,24.37,0,0,0,5.4,6.25,25.08,25.08,0,0,0,4.84,3.11l1.26.57a15.78,15.78,0,0,1-3.06-7A15.5,15.5,0,0,1,172.58,63.46Z"/><path class="cls-2" d="M189.51,77.85a3.93,3.93,0,0,1-.63-.29l-.21-.13h.24a3.91,3.91,0,0,0,.64-.08,6,6,0,0,0,2-.87,14.09,14.09,0,0,0,2.45-2.09c.88-.9,1.79-1.91,2.71-3a52.7,52.7,0,0,0,4.45-6c.54-.84.95-1.56,1.24-2.06s.42-.72.44-.77c-.18.21-.35.42-.53.61a14.68,14.68,0,0,1-7,4,14.12,14.12,0,0,1-5.28.35,12.05,12.05,0,0,1-1.4-.26l-.47-.12.49,0a12.94,12.94,0,0,0,1.38-.11,16.3,16.3,0,0,0,4.73-1.38,14.91,14.91,0,0,0,5.44-4.32,14.17,14.17,0,0,0,2-3.5,14.71,14.71,0,0,0,.64-2c.08-.35.15-.71.22-1.06l.08-.54,0-.28v-.11A14.46,14.46,0,0,0,194.82,42a16,16,0,0,0-4.73-1.38c-.59-.07-1.06-.11-1.38-.12l-.49,0,.47-.12c.32-.08.78-.17,1.4-.26a14.56,14.56,0,0,1,5.28.35,14.71,14.71,0,0,1,7,4.06c.19.19.36.39.54.6l-.44-.77c-.29-.5-.7-1.21-1.24-2a51.82,51.82,0,0,0-4.45-6c-.92-1.09-1.83-2.1-2.71-3a14.65,14.65,0,0,0-2.45-2.1,6,6,0,0,0-2-.86,3.91,3.91,0,0,0-.64-.08l-.24,0,.21-.12a3.93,3.93,0,0,1,.63-.29,5.32,5.32,0,0,1,2.64-.17,10,10,0,0,1,3.63,1.48,15.51,15.51,0,0,1,3.49,3l.25.33h0c.36.05.9.15,1.59.31a21.09,21.09,0,0,1,5.59,2.24,21.85,21.85,0,0,1,10.85,16.58v.38h0v.17l0,.18-.05.38-.12.74c-.09.49-.2,1-.31,1.46a24.9,24.9,0,0,1-.9,2.77,21.11,21.11,0,0,1-2.65,4.8,22.19,22.19,0,0,1-6.77,6.06,21.09,21.09,0,0,1-5.59,2.24,15,15,0,0,1-1.59.3h0a3.92,3.92,0,0,1-.25.32,15.32,15.32,0,0,1-3.49,3.05A10,10,0,0,1,192.15,78,5.44,5.44,0,0,1,189.51,77.85ZM199.69,73l1.26-.57a24.78,24.78,0,0,0,4.84-3.11,24.37,24.37,0,0,0,5.4-6.25,22.24,22.24,0,0,0,2-4.35c.26-.78.49-1.6.68-2.43.09-.42.18-.84.25-1.27l.1-.65,0-.32v-.14a23.16,23.16,0,0,0-3.09-9.17,24.2,24.2,0,0,0-5.4-6.25A24.78,24.78,0,0,0,201,35.33q-.76-.37-1.26-.57a15.62,15.62,0,0,1,3.06,7,14.42,14.42,0,0,1,.2,2.5c0,.57,0,.88,0,.9a15.39,15.39,0,0,1,3.59,8.55V54h0v.14l0,.17,0,.34-.11.67c-.08.44-.18.88-.3,1.31a15.53,15.53,0,0,1-.89,2.45,14.94,14.94,0,0,1-2.22,3.44s0,.33,0,.91a14.42,14.42,0,0,1-.2,2.5A15.67,15.67,0,0,1,199.69,73Z"/><path class="cls-2" d="M182.55,85.55A17.48,17.48,0,0,1,171,76.06a16.94,16.94,0,0,1-.92-2.36l-.28-.93a9.34,9.34,0,0,0-.24,1,10.65,10.65,0,0,0-.15,2.73,11.6,11.6,0,0,0,1,4c0,.07.08.14.11.21a.53.53,0,0,1-.12,0,8.3,8.3,0,0,1-4.1-.44,22.46,22.46,0,0,1-11-7.58A22.39,22.39,0,0,1,151,55.93c.06-.51.14-.9.19-1.18l.07-.41-.2.36c-.13.25-.34.6-.56,1.09a17.51,17.51,0,0,0-1.33,4.33,18.69,18.69,0,0,0,.08,6.86,12.84,12.84,0,0,0,.32,1.33c-.29-.59-.59-1.17-.9-1.71a27.38,27.38,0,0,0-4.76-5.83c-1.53-1.45-2.85-2.5-3.77-3.22s-1.44-1.1-1.44-1.1l1.08,1.45c.69.94,1.72,2.27,2.89,3.94a36.91,36.91,0,0,1,3.54,6A18.51,18.51,0,0,1,148,75.71a7.05,7.05,0,0,1-1,3.47,2.39,2.39,0,0,1-2.19,1.29,3.84,3.84,0,0,1-2.49-1.27,2.66,2.66,0,0,1-.7-2.3,2.34,2.34,0,0,1,1.2-1.72,2.3,2.3,0,0,1,1.76-.06,2.26,2.26,0,0,1,1,.72,3.84,3.84,0,0,1,.24.39,3,3,0,0,0-.12-.46,2.43,2.43,0,0,0-.88-1.1,3,3,0,0,0-2.32-.48,3.6,3.6,0,0,0-2.46,2.21,4.26,4.26,0,0,0-.29,2,4.81,4.81,0,0,0,.73,2.09,6,6,0,0,0,3.93,2.71,4.87,4.87,0,0,0,2.89-.35A5.71,5.71,0,0,0,149.58,81a9.33,9.33,0,0,0,1.71-5.2,15.48,15.48,0,0,0-.59-4.47,18,18,0,0,0,2.11,3.42,19.09,19.09,0,0,0,6.64,5.35,18.25,18.25,0,0,0,6.62,1.81,8.22,8.22,0,0,0,4.57-.68l.17-.1a11.68,11.68,0,0,0,2.83,3.5,11.82,11.82,0,0,0,8.83,2.56,10.29,10.29,0,0,0,2.65-.68,9.56,9.56,0,0,0,.9-.41l-1-.09A17.07,17.07,0,0,1,182.55,85.55Z"/><path class="cls-2" d="M193,22.15a17.55,17.55,0,0,1,11.52,9.49,16.23,16.23,0,0,1,.92,2.37l.28.93a9.34,9.34,0,0,0,.24-1,10.73,10.73,0,0,0,.15-2.74,11.6,11.6,0,0,0-1-4c0-.07-.08-.14-.11-.22l.12,0a8.37,8.37,0,0,1,4.11.45,22.44,22.44,0,0,1,11,7.57,22.4,22.4,0,0,1,4.38,16.79c-.06.52-.14.91-.19,1.18l-.07.42.2-.37a10,10,0,0,0,.56-1.08,17.05,17.05,0,0,0,1.33-4.34,18.63,18.63,0,0,0-.08-6.85,13.67,13.67,0,0,0-.32-1.34q.44.9.9,1.71a27.13,27.13,0,0,0,4.76,5.83,48.79,48.79,0,0,0,3.77,3.23c.92.72,1.44,1.1,1.44,1.1l-1.08-1.46c-.69-.93-1.71-2.27-2.89-3.94a36.08,36.08,0,0,1-3.54-6A18.47,18.47,0,0,1,227.52,32a7.16,7.16,0,0,1,1-3.47,2.41,2.41,0,0,1,2.19-1.28,3.88,3.88,0,0,1,2.5,1.26,2.71,2.71,0,0,1,.69,2.31,2.24,2.24,0,0,1-4,1.06,2.54,2.54,0,0,1-.24-.4,2.31,2.31,0,0,0,1,1.57,3,3,0,0,0,2.32.48,3.6,3.6,0,0,0,2.46-2.21,4.16,4.16,0,0,0,.29-2,4.77,4.77,0,0,0-.73-2.08,6,6,0,0,0-3.93-2.71,4.94,4.94,0,0,0-2.89.34A5.82,5.82,0,0,0,226,26.71a9.28,9.28,0,0,0-1.71,5.19,15.73,15.73,0,0,0,.59,4.47A18.29,18.29,0,0,0,222.72,33a19,19,0,0,0-6.64-5.35,18.25,18.25,0,0,0-6.62-1.81,8.22,8.22,0,0,0-4.57.68l-.17.1a11.59,11.59,0,0,0-11.65-6.06,10.33,10.33,0,0,0-2.66.67c-.59.25-.9.42-.9.42l1,.09A18.25,18.25,0,0,1,193,22.15Z"/><path class="cls-2" d="M221.41,81.71c-3.62-1.39-7.82-.36-11.14,1.71a26.2,26.2,0,0,0-4.44,3.48c-1.29,1.24-2.41,2.47-3.48,3.62a36.24,36.24,0,0,1-6,5.52,13.92,13.92,0,0,1-2.7,1.45,5.16,5.16,0,0,1-2.25.33,2.64,2.64,0,0,1-1.36-.49,3.67,3.67,0,0,1-.4-.35,3.29,3.29,0,0,0,.3.45,2.94,2.94,0,0,0,1.35.9,5.81,5.81,0,0,0,2.6.17,12.65,12.65,0,0,0,3.25-1,28.92,28.92,0,0,0,7.13-5,54.64,54.64,0,0,1,7.7-6.29,15,15,0,0,1,4.36-1.88,8.66,8.66,0,0,1,4.14,0,2.5,2.5,0,0,1,2,2,3.53,3.53,0,0,1-.89,2.82A6.22,6.22,0,0,1,216.92,91a1.11,1.11,0,0,1-.68-.31,1,1,0,0,1-.22-.53.63.63,0,0,1,.17-.47.63.63,0,0,0-.31.46,1,1,0,0,0,.11.7,1.47,1.47,0,0,0,.79.64,7,7,0,0,0,5.93-1,5.3,5.3,0,0,0,2-4.18,4.63,4.63,0,0,0-.92-2.74A5.69,5.69,0,0,0,221.41,81.71Z"/><path class="cls-2" d="M154.12,26c3.62,1.38,7.82.36,11.14-1.71a26.2,26.2,0,0,0,4.44-3.48c1.29-1.24,2.41-2.48,3.49-3.63a35.72,35.72,0,0,1,6-5.51,13.4,13.4,0,0,1,2.7-1.45,5.34,5.34,0,0,1,2.25-.34,2.63,2.63,0,0,1,1.36.5,2.72,2.72,0,0,1,.4.35,2.67,2.67,0,0,0-1.65-1.35,5.81,5.81,0,0,0-2.6-.17,12.27,12.27,0,0,0-3.25,1,28.66,28.66,0,0,0-7.13,5,53.89,53.89,0,0,1-7.7,6.28,14.48,14.48,0,0,1-4.36,1.88,8.63,8.63,0,0,1-4.13,0,2.51,2.51,0,0,1-2-2,3.53,3.53,0,0,1,.89-2.82,6.24,6.24,0,0,1,4.69-1.78,1.11,1.11,0,0,1,.68.31.89.89,0,0,1,.22.53.63.63,0,0,1-.17.47.67.67,0,0,0,.31-.46,1.06,1.06,0,0,0-.11-.71,1.42,1.42,0,0,0-.79-.63,6.35,6.35,0,0,0-2.59-.23,6.54,6.54,0,0,0-3.34,1.28,5.29,5.29,0,0,0-2,4.17,4.63,4.63,0,0,0,.92,2.75A5.69,5.69,0,0,0,154.12,26Z"/><path class="cls-2" d="M185.48,97.33a2.64,2.64,0,0,1-1.36.49,5.16,5.16,0,0,1-2.25-.33,13.92,13.92,0,0,1-2.7-1.45,35.83,35.83,0,0,1-6-5.52c-1.08-1.15-2.2-2.38-3.49-3.62a26.2,26.2,0,0,0-4.44-3.48c-3.32-2.07-7.52-3.1-11.14-1.71a5.69,5.69,0,0,0-2.41,1.76,4.63,4.63,0,0,0-.92,2.74,5.3,5.3,0,0,0,2,4.18,7,7,0,0,0,5.93,1,1.43,1.43,0,0,0,.79-.64,1,1,0,0,0,.11-.7.63.63,0,0,0-.31-.46.63.63,0,0,1,.17.47.89.89,0,0,1-.22.53,1.11,1.11,0,0,1-.68.31,6.24,6.24,0,0,1-4.69-1.78,3.53,3.53,0,0,1-.89-2.82,2.5,2.5,0,0,1,2-2,8.62,8.62,0,0,1,4.13,0,15,15,0,0,1,4.36,1.88,54.64,54.64,0,0,1,7.7,6.29,28.92,28.92,0,0,0,7.13,5,12.65,12.65,0,0,0,3.25,1,5.81,5.81,0,0,0,2.6-.17,2.94,2.94,0,0,0,1.35-.9,3.29,3.29,0,0,0,.3-.45A2.72,2.72,0,0,1,185.48,97.33Z"/><path class="cls-2" d="M190.05,10.38a2.63,2.63,0,0,1,1.36-.5,5.34,5.34,0,0,1,2.25.34,13.4,13.4,0,0,1,2.7,1.45,36.14,36.14,0,0,1,6,5.51c1.07,1.15,2.19,2.39,3.48,3.63a26.2,26.2,0,0,0,4.44,3.48c3.32,2.07,7.52,3.09,11.14,1.71a5.69,5.69,0,0,0,2.41-1.76,4.63,4.63,0,0,0,.92-2.75,5.29,5.29,0,0,0-2-4.17A6.54,6.54,0,0,0,219.37,16a6.39,6.39,0,0,0-2.59.23,1.46,1.46,0,0,0-.79.63,1.06,1.06,0,0,0-.11.71.67.67,0,0,0,.31.46.63.63,0,0,1-.17-.47,1,1,0,0,1,.22-.53,1.11,1.11,0,0,1,.68-.31,6.22,6.22,0,0,1,4.69,1.78,3.53,3.53,0,0,1,.89,2.82,2.51,2.51,0,0,1-2,2,8.67,8.67,0,0,1-4.14,0A14.48,14.48,0,0,1,212,21.48a53.89,53.89,0,0,1-7.7-6.28,28.66,28.66,0,0,0-7.13-5,12.27,12.27,0,0,0-3.25-1,5.81,5.81,0,0,0-2.6.17,2.67,2.67,0,0,0-1.65,1.35A3.67,3.67,0,0,1,190.05,10.38Z"/><path class="cls-2" d="M232.85,61.84c1.18-1.67,2.2-3,2.89-3.94l1.08-1.45s-.52.38-1.44,1.1-2.24,1.77-3.77,3.22a27.38,27.38,0,0,0-4.76,5.83c-.31.54-.61,1.12-.9,1.71a12.84,12.84,0,0,0,.32-1.33,18.69,18.69,0,0,0,.08-6.86A17.09,17.09,0,0,0,225,55.79a10.33,10.33,0,0,0-.56-1.09l-.2-.36.07.41c0,.27.13.67.19,1.18a22.39,22.39,0,0,1-4.38,16.79,22.4,22.4,0,0,1-11,7.58,8.34,8.34,0,0,1-4.11.44.53.53,0,0,1-.12,0c0-.07.08-.14.11-.21a11.6,11.6,0,0,0,1-4,10.65,10.65,0,0,0-.15-2.73,9.34,9.34,0,0,0-.24-1l-.28.93a15.76,15.76,0,0,1-.92,2.36A17.48,17.48,0,0,1,193,85.55a17.07,17.07,0,0,1-2.5.46l-1,.09a9.56,9.56,0,0,0,.9.41,10.27,10.27,0,0,0,2.66.68,11.43,11.43,0,0,0,4.15-.25,11.54,11.54,0,0,0,4.67-2.31,11.68,11.68,0,0,0,2.83-3.5l.17.1a8.22,8.22,0,0,0,4.57.68,18.25,18.25,0,0,0,6.62-1.81,19.09,19.09,0,0,0,6.64-5.35,18,18,0,0,0,2.11-3.42,15.83,15.83,0,0,0-.59,4.47A9.33,9.33,0,0,0,226,81a5.71,5.71,0,0,0,2.25,1.86,4.87,4.87,0,0,0,2.89.35A6,6,0,0,0,235,80.5a4.81,4.81,0,0,0,.73-2.09,4.14,4.14,0,0,0-.29-2A3.6,3.6,0,0,0,233,74.19a3,3,0,0,0-2.32.48,2.43,2.43,0,0,0-.88,1.1,3,3,0,0,0-.12.46,3.84,3.84,0,0,1,.24-.39,2.26,2.26,0,0,1,1-.72,2.3,2.3,0,0,1,1.76.06,2.34,2.34,0,0,1,1.2,1.72,2.65,2.65,0,0,1-.69,2.3,3.89,3.89,0,0,1-2.5,1.27,2.4,2.4,0,0,1-2.19-1.29,7.16,7.16,0,0,1-1-3.47,18.51,18.51,0,0,1,1.79-7.83A36.91,36.91,0,0,1,232.85,61.84Z"/><path class="cls-2" d="M142.68,45.86c-1.17,1.67-2.2,3-2.89,3.94l-1.08,1.46s.52-.38,1.44-1.1a48.79,48.79,0,0,0,3.77-3.23,27.13,27.13,0,0,0,4.76-5.83q.47-.81.9-1.71a13.67,13.67,0,0,0-.32,1.34,18.63,18.63,0,0,0-.08,6.85,17.47,17.47,0,0,0,1.33,4.34c.22.48.43.84.56,1.08l.2.37L151.2,53c0-.27-.13-.66-.19-1.18A22.4,22.4,0,0,1,155.39,35a22.5,22.5,0,0,1,11-7.57,8.32,8.32,0,0,1,4.1-.45l.12,0c0,.08-.08.15-.11.22a11.6,11.6,0,0,0-1,4,10.73,10.73,0,0,0,.15,2.74,9.34,9.34,0,0,0,.24,1l.28-.93a17.48,17.48,0,0,1,.92-2.37,17.55,17.55,0,0,1,11.52-9.49,18.25,18.25,0,0,1,2.5-.45l1-.09s-.31-.17-.9-.42a10.35,10.35,0,0,0-2.65-.67,11.67,11.67,0,0,0-4.16.24,11.32,11.32,0,0,0-7.5,5.82l-.17-.1a8.22,8.22,0,0,0-4.57-.68,18.25,18.25,0,0,0-6.62,1.81A19,19,0,0,0,152.81,33a18,18,0,0,0-2.11,3.42,15.5,15.5,0,0,0,.59-4.48,9.28,9.28,0,0,0-1.71-5.19,5.82,5.82,0,0,0-2.25-1.87,4.94,4.94,0,0,0-2.89-.34,6,6,0,0,0-3.93,2.71,4.77,4.77,0,0,0-.73,2.08,4.29,4.29,0,0,0,.29,2,3.6,3.6,0,0,0,2.46,2.21,3,3,0,0,0,2.32-.48,2.31,2.31,0,0,0,1-1.57,2.54,2.54,0,0,1-.24.4,2.21,2.21,0,0,1-4-1.06,2.68,2.68,0,0,1,.7-2.31,3.83,3.83,0,0,1,2.49-1.26A2.4,2.4,0,0,1,147,28.52,7.05,7.05,0,0,1,148,32a18.47,18.47,0,0,1-1.79,7.83A36.08,36.08,0,0,1,142.68,45.86Z"/><path class="cls-2" d="M212.54,91.4a7.43,7.43,0,0,0-3,.38,13,13,0,0,0-3.95,2.16c-1.32,1-2.57,2.27-3.81,3.44a17.79,17.79,0,0,1-3.64,2.79,15.4,15.4,0,0,1-3.57,1.45,16.26,16.26,0,0,1-2.71.48l-.78.05-.27,0,.24.12a7.91,7.91,0,0,0,.74.32,11,11,0,0,0,2.92.65,11.62,11.62,0,0,0,4.52-.55A12.66,12.66,0,0,0,204,99.77c1.41-1.33,2.47-2.68,3.46-3.8a19.62,19.62,0,0,1,2.8-2.73,9.68,9.68,0,0,1,2.34-1.34c.31-.11.56-.19.73-.23l.27-.08-.27-.06A4.4,4.4,0,0,0,212.54,91.4Z"/><path class="cls-2" d="M163,16.31a7.8,7.8,0,0,0,3-.38A12.79,12.79,0,0,0,170,13.76c1.32-1,2.57-2.26,3.81-3.43a17.7,17.7,0,0,1,3.64-2.79A15.46,15.46,0,0,1,181,6.08a17.16,17.16,0,0,1,2.71-.47,6.58,6.58,0,0,1,.78-.05l.27,0-.24-.12a7.91,7.91,0,0,0-.74-.32,10.64,10.64,0,0,0-2.91-.65,11.62,11.62,0,0,0-4.53.54,12.66,12.66,0,0,0-4.79,2.94,49.87,49.87,0,0,0-3.46,3.81,19.62,19.62,0,0,1-2.8,2.73,9.26,9.26,0,0,1-2.34,1.33c-.31.11-.56.2-.73.24l-.27.07.27.07A5.51,5.51,0,0,0,163,16.31Z"/><path class="cls-2" d="M183.68,102.1a16.26,16.26,0,0,1-2.71-.48,15.4,15.4,0,0,1-3.57-1.45,18.06,18.06,0,0,1-3.64-2.79c-1.24-1.17-2.49-2.42-3.81-3.44A13,13,0,0,0,166,91.78a7.43,7.43,0,0,0-3-.38,4.4,4.4,0,0,0-.8.13l-.27.06.27.08c.17,0,.42.12.73.23a9.68,9.68,0,0,1,2.34,1.34,19.62,19.62,0,0,1,2.8,2.73c1,1.12,2.05,2.47,3.46,3.8a12.66,12.66,0,0,0,4.79,2.94,11.65,11.65,0,0,0,4.53.55,11,11,0,0,0,2.91-.65,7.91,7.91,0,0,0,.74-.32l.24-.12-.27,0Z"/><path class="cls-2" d="M191.85,5.61a17.16,17.16,0,0,1,2.71.47,15.46,15.46,0,0,1,3.57,1.46,17.44,17.44,0,0,1,3.64,2.79c1.24,1.17,2.49,2.41,3.81,3.43a12.79,12.79,0,0,0,3.95,2.17,7.8,7.8,0,0,0,3,.38,5.51,5.51,0,0,0,.8-.13l.27-.07-.27-.07c-.17,0-.42-.13-.73-.24a9.26,9.26,0,0,1-2.34-1.33,19.62,19.62,0,0,1-2.8-2.73A49.87,49.87,0,0,0,204,7.93,12.66,12.66,0,0,0,199.22,5a11.59,11.59,0,0,0-4.52-.54,10.63,10.63,0,0,0-2.92.65,7.91,7.91,0,0,0-.74.32l-.24.12.27,0A6.58,6.58,0,0,1,191.85,5.61Z"/><path class="cls-2" d="M161.56,38.6c.66-1,1.28-1.84,1.86-2.57.27-.38.55-.69.79-1s.44-.55.62-.75c.36-.41.55-.65.55-.65l-.82.22a7.58,7.58,0,0,0-1,.34,9.72,9.72,0,0,0-1.22.56,13.91,13.91,0,0,0-2.9,2,14.09,14.09,0,0,0-4.33,7.4,14.22,14.22,0,0,0-.34,3.5,12.3,12.3,0,0,0,.11,1.34,6.74,6.74,0,0,0,.18,1c.12.54.21.83.21.83l.3-.8c.09-.25.2-.56.34-.91s.28-.75.48-1.17c.35-.85.82-1.83,1.33-2.87s1.15-2.15,1.81-3.3S160.92,39.58,161.56,38.6Z"/><path class="cls-2" d="M156,58.58c-.14-.35-.25-.66-.34-.91-.19-.52-.3-.8-.3-.8s-.09.29-.21.83a6.58,6.58,0,0,0-.18,1,12.5,12.5,0,0,0-.11,1.35,14.22,14.22,0,0,0,.34,3.5,14,14,0,0,0,4.33,7.39,13.61,13.61,0,0,0,2.9,2,9.72,9.72,0,0,0,1.22.56,6.12,6.12,0,0,0,1,.33c.53.16.82.23.82.23l-.55-.66c-.18-.2-.39-.44-.62-.74s-.52-.61-.79-1c-.58-.72-1.2-1.6-1.86-2.57s-1.31-2-2-3.18-1.26-2.26-1.81-3.3-1-2-1.33-2.87C156.23,59.32,156.1,58.93,156,58.58Z"/><path class="cls-2" d="M191.9,94.23a10.19,10.19,0,0,0,9.32-5.85,8.73,8.73,0,0,0,.61-1.65,5.18,5.18,0,0,0,.14-.63l-6.29,3.79-6.16,4,.63.15A10,10,0,0,0,191.9,94.23Z"/><path class="cls-2" d="M183.63,13.48a10.19,10.19,0,0,0-9.32,5.85A8.73,8.73,0,0,0,173.7,21a5.18,5.18,0,0,0-.14.63l6.3-3.79,6.15-4a6.26,6.26,0,0,0-.63-.15A9.09,9.09,0,0,0,183.63,13.48Z"/><path class="cls-2" d="M173.56,86.1a5.18,5.18,0,0,0,.14.63,8.73,8.73,0,0,0,.61,1.65,10.19,10.19,0,0,0,9.32,5.85,10,10,0,0,0,1.75-.17l.63-.15-6.15-4Z"/><path class="cls-2" d="M202,21.61a5.18,5.18,0,0,0-.14-.63,8.73,8.73,0,0,0-.61-1.65,10.19,10.19,0,0,0-9.32-5.85,9.09,9.09,0,0,0-1.75.17,6.26,6.26,0,0,0-.63.15l6.16,4Z"/><path class="cls-2" d="M190.33,64.28A7.63,7.63,0,0,0,195,62.22a7.73,7.73,0,0,0,2.31-4.53,6.33,6.33,0,0,0,0-1.56c0-.37-.08-.57-.08-.57l-.4.41c-.24.26-.61.61-1,1-.85.82-2,1.78-3.08,2.85s-2.15,2.13-3,2.92c-.43.4-.8.74-1.07,1l-.42.38s.19,0,.56.11A6.11,6.11,0,0,0,190.33,64.28Z"/><path class="cls-2" d="M185.2,43.43A7.58,7.58,0,0,0,178.25,50a6.33,6.33,0,0,0,0,1.56c0,.36.08.56.08.56s.15-.14.4-.4.61-.61,1-1c.85-.82,2-1.78,3.08-2.85s2.15-2.13,3-2.93c.43-.39.8-.74,1.07-1l.42-.38a4.41,4.41,0,0,0-.56-.12A6.68,6.68,0,0,0,185.2,43.43Z"/><path class="cls-2" d="M185.83,62.76c-.87-.79-1.88-1.85-3-2.92s-2.23-2-3.08-2.85c-.41-.41-.78-.76-1-1l-.4-.41s0,.2-.08.57a6.33,6.33,0,0,0,0,1.56,7.6,7.6,0,0,0,6.95,6.59,6.08,6.08,0,0,0,1.56-.06c.37-.06.56-.11.56-.11l-.42-.38C186.63,63.5,186.26,63.16,185.83,62.76Z"/><path class="cls-2" d="M189.7,44.94c.87.8,1.89,1.86,3,2.93s2.23,2,3.08,2.85c.41.41.78.76,1,1l.4.4s0-.2.08-.56a6.33,6.33,0,0,0,0-1.56,7.58,7.58,0,0,0-6.95-6.59,6.7,6.7,0,0,0-1.56,0,4.41,4.41,0,0,0-.56.12l.42.38C188.9,44.2,189.27,44.55,189.7,44.94Z"/><path class="cls-2" d="M75.23,114.82c-.18-.19-.35-.4-.53-.6l.44.76c.29.5.7,1.21,1.24,2a51.82,51.82,0,0,0,4.45,6c.92,1.09,1.83,2.1,2.71,3A15,15,0,0,0,86,128.12a5.81,5.81,0,0,0,2,.86,6.08,6.08,0,0,0,.65.09h.24l-.21.12a3.12,3.12,0,0,1-.63.3,5.39,5.39,0,0,1-2.65.16,9.88,9.88,0,0,1-3.62-1.47,15.6,15.6,0,0,1-3.49-3l-.26-.33h0c-.37,0-.9-.15-1.59-.31a20.87,20.87,0,0,1-5.59-2.23,22.1,22.1,0,0,1-6.77-6.07A21.8,21.8,0,0,1,60,105.68v-.38h0v-.16l0-.19,0-.38c0-.24.07-.49.12-.74.09-.49.2-1,.31-1.45a22.54,22.54,0,0,1,.89-2.78A21.06,21.06,0,0,1,64.1,94.8a22.1,22.1,0,0,1,6.77-6.07,21.31,21.31,0,0,1,5.59-2.24c.69-.15,1.22-.26,1.59-.3h0l.26-.33a15.6,15.6,0,0,1,3.49-3,9.88,9.88,0,0,1,3.62-1.47,5.39,5.39,0,0,1,2.65.16,3.12,3.12,0,0,1,.63.3l.21.12h-.24L88,82a6.06,6.06,0,0,0-2,.87A14.55,14.55,0,0,0,83.54,85c-.88.91-1.79,1.92-2.71,3a51.82,51.82,0,0,0-4.45,6c-.54.83-.95,1.55-1.24,2s-.42.73-.44.77c.17-.21.35-.42.53-.61a14.76,14.76,0,0,1,7-4.05,14.34,14.34,0,0,1,5.28-.35,11.8,11.8,0,0,1,1.39.26l.48.12-.49,0c-.32,0-.79,0-1.38.11a16.19,16.19,0,0,0-4.74,1.39A14.71,14.71,0,0,0,77.32,98a14.4,14.4,0,0,0-2,3.49,13.57,13.57,0,0,0-.64,2c-.08.35-.16.7-.22,1.06l-.08.54,0,.27v.11A14.9,14.9,0,0,0,77.32,113a14.71,14.71,0,0,0,5.44,4.32,16.19,16.19,0,0,0,4.74,1.39c.59.06,1.06.1,1.38.11l.49,0-.48.12c-.31.08-.78.17-1.39.26a14.34,14.34,0,0,1-5.28-.35A14.76,14.76,0,0,1,75.23,114.82Zm-.59.29c0-.58,0-.89,0-.91a15.47,15.47,0,0,1-3.6-8.55v-.31h0v-.15l0-.17,0-.34.11-.67c.08-.44.18-.88.3-1.3a14.88,14.88,0,0,1,3.11-5.9s0-.33,0-.91a14.42,14.42,0,0,1,.2-2.5,15.75,15.75,0,0,1,3-7c-.32.14-.74.33-1.26.58a25.11,25.11,0,0,0-4.83,3.1,24.37,24.37,0,0,0-5.4,6.25,22.51,22.51,0,0,0-2,4.35c-.26.79-.49,1.6-.68,2.44-.09.42-.18.84-.25,1.27l-.1.64,0,.33,0,.13a23.27,23.27,0,0,0,3.1,9.18,24.54,24.54,0,0,0,5.4,6.25,25.11,25.11,0,0,0,4.83,3.1c.52.25.94.44,1.26.58a15.75,15.75,0,0,1-3-7A14.42,14.42,0,0,1,74.64,115.11Z"/><path class="cls-2" d="M91.57,129.5a3.58,3.58,0,0,1-.64-.3l-.2-.12H91a6,6,0,0,0,.64-.09,5.74,5.74,0,0,0,2-.86A14.65,14.65,0,0,0,96.11,126c.88-.91,1.79-1.92,2.71-3a54.28,54.28,0,0,0,4.45-6c.53-.84,1-1.55,1.24-2s.41-.73.44-.77c-.18.21-.35.41-.54.61a14.78,14.78,0,0,1-7,4.05,14.39,14.39,0,0,1-5.29.35c-.61-.09-1.08-.18-1.39-.26l-.47-.12.49,0c.31,0,.78,0,1.37-.11a16,16,0,0,0,4.74-1.39,14.71,14.71,0,0,0,5.44-4.32,14.43,14.43,0,0,0,2-3.49,14.85,14.85,0,0,0,.64-2c.08-.35.15-.7.21-1.06l.08-.54,0-.27,0-.11a15,15,0,0,0-3-7.51,14.71,14.71,0,0,0-5.44-4.32,16,16,0,0,0-4.74-1.39c-.59-.06-1.06-.11-1.37-.11l-.49,0,.47-.12a11.8,11.8,0,0,1,1.39-.26,14.39,14.39,0,0,1,5.29.35,14.78,14.78,0,0,1,7,4.05c.19.19.36.4.53.6l-.43-.76c-.29-.5-.71-1.22-1.24-2a54.28,54.28,0,0,0-4.45-6c-.92-1.09-1.83-2.1-2.71-3a14.2,14.2,0,0,0-2.46-2.09,6,6,0,0,0-2-.87L91,81.93h-.24l.2-.12a3.58,3.58,0,0,1,.64-.3,5.34,5.34,0,0,1,2.64-.16,9.92,9.92,0,0,1,3.63,1.47,15.56,15.56,0,0,1,3.48,3c.1.11.17.22.26.33h0c.37,0,.91.15,1.59.3a21.18,21.18,0,0,1,5.59,2.24,22.24,22.24,0,0,1,6.78,6.07,21.9,21.9,0,0,1,4.08,10.52v.38h0v.16l0,.19,0,.37-.12.75c-.09.49-.2,1-.32,1.45a22.54,22.54,0,0,1-.89,2.78,21.43,21.43,0,0,1-2.65,4.79,22.24,22.24,0,0,1-6.78,6.07,20.75,20.75,0,0,1-5.59,2.23c-.68.16-1.22.26-1.59.31h0c-.09.11-.16.22-.26.33a15.56,15.56,0,0,1-3.48,3,9.92,9.92,0,0,1-3.63,1.47A5.34,5.34,0,0,1,91.57,129.5Zm10.18-4.9c.33-.14.75-.33,1.26-.58a25.44,25.44,0,0,0,4.84-3.1,24.74,24.74,0,0,0,5.4-6.25,22.49,22.49,0,0,0,2-4.35,23.67,23.67,0,0,0,.69-2.44c.09-.42.17-.84.24-1.27l.1-.64,0-.33v-.13a23.21,23.21,0,0,0-3.09-9.18,24.56,24.56,0,0,0-5.4-6.25A25.44,25.44,0,0,0,103,87c-.51-.25-.93-.44-1.26-.58a15.75,15.75,0,0,1,3,7,13.48,13.48,0,0,1,.2,2.5c0,.58,0,.89,0,.91a15.46,15.46,0,0,1,3.59,8.55v.31h0v.15l0,.17,0,.34-.1.67c-.09.44-.19.88-.3,1.3a15.26,15.26,0,0,1-3.11,5.9s0,.33,0,.91a13.48,13.48,0,0,1-.2,2.5A15.75,15.75,0,0,1,101.75,124.6Z"/><path class="cls-2" d="M84.61,137.2a17.42,17.42,0,0,1-11.52-9.49,17.2,17.2,0,0,1-.93-2.36l-.27-.94a9.34,9.34,0,0,0-.24,1,10.32,10.32,0,0,0-.15,2.74,11.51,11.51,0,0,0,1,4l.12.22-.13,0a8.22,8.22,0,0,1-4.1-.45,22.37,22.37,0,0,1-11-7.57,22,22,0,0,1-4.58-12.49,23.05,23.05,0,0,1,.19-4.3c.06-.51.15-.91.2-1.18l.07-.42-.21.37a11.76,11.76,0,0,0-.55,1.09,16.9,16.9,0,0,0-1.34,4.33,18.93,18.93,0,0,0,.09,6.86c.08.44.19.88.31,1.33q-.42-.9-.9-1.71A27.37,27.37,0,0,0,46,112.42c-1.53-1.45-2.85-2.51-3.77-3.23s-1.44-1.1-1.44-1.1l1.07,1.46c.7.93,1.72,2.27,2.9,3.94a37.2,37.2,0,0,1,3.54,6,18.81,18.81,0,0,1,1.79,7.83,7.16,7.16,0,0,1-1,3.47,2.39,2.39,0,0,1-2.19,1.28,3.83,3.83,0,0,1-2.5-1.26,2.71,2.71,0,0,1-.7-2.31,2.39,2.39,0,0,1,1.21-1.72,2.34,2.34,0,0,1,1.76,0,2.19,2.19,0,0,1,1,.72,1.57,1.57,0,0,1,.23.39,2,2,0,0,0-.11-.46,2.35,2.35,0,0,0-.89-1.1,3,3,0,0,0-2.31-.49A3.6,3.6,0,0,0,42.13,128a4.16,4.16,0,0,0-.29,2,4.93,4.93,0,0,0,.72,2.09,6.07,6.07,0,0,0,3.94,2.71,5,5,0,0,0,2.88-.35,5.76,5.76,0,0,0,2.26-1.86,9.41,9.41,0,0,0,1.71-5.2,15.78,15.78,0,0,0-.59-4.47,18.36,18.36,0,0,0,2.11,3.42,19,19,0,0,0,6.63,5.34,18.33,18.33,0,0,0,6.63,1.82,8.12,8.12,0,0,0,4.57-.69l.16-.1a11.37,11.37,0,0,0,7.51,5.82,11.65,11.65,0,0,0,4.15.25,10.27,10.27,0,0,0,2.66-.68,7.91,7.91,0,0,0,.9-.42l-1-.09A18,18,0,0,1,84.61,137.2Z"/><path class="cls-2" d="M95,73.8a17.46,17.46,0,0,1,11.53,9.49,18.31,18.31,0,0,1,.92,2.36l.28.94a8.25,8.25,0,0,0,.23-1,10.25,10.25,0,0,0,.16-2.74,11.77,11.77,0,0,0-1-4l-.11-.22.12,0a8.21,8.21,0,0,1,4.1.45,22.43,22.43,0,0,1,11,7.57,22,22,0,0,1,4.57,12.49,21.44,21.44,0,0,1-.19,4.3c-.06.51-.15.91-.19,1.18l-.08.42.21-.37a11.76,11.76,0,0,0,.55-1.09,17,17,0,0,0,1.34-4.33,18.69,18.69,0,0,0-.08-6.86c-.09-.44-.2-.88-.32-1.33.28.6.59,1.17.9,1.71a27.67,27.67,0,0,0,4.75,5.83c1.53,1.45,2.86,2.51,3.77,3.23s1.45,1.1,1.45,1.1l-1.08-1.46c-.69-.93-1.72-2.27-2.89-3.94a36.49,36.49,0,0,1-3.54-6,18.51,18.51,0,0,1-1.79-7.83,7.05,7.05,0,0,1,1-3.47,2.38,2.38,0,0,1,2.19-1.28,3.81,3.81,0,0,1,2.49,1.26,2.68,2.68,0,0,1,.7,2.31,2.39,2.39,0,0,1-1.21,1.72,2.34,2.34,0,0,1-1.76,0,2.21,2.21,0,0,1-1-.72,2.83,2.83,0,0,1-.24-.39,1.84,1.84,0,0,0,.12.46,2.32,2.32,0,0,0,.88,1.1,3,3,0,0,0,2.32.49A3.59,3.59,0,0,0,137.51,83a4.31,4.31,0,0,0,.3-2,4.94,4.94,0,0,0-.73-2.09,6.05,6.05,0,0,0-3.93-2.71,5,5,0,0,0-2.89.35A5.73,5.73,0,0,0,128,78.35a9.26,9.26,0,0,0-1.71,5.2,15.43,15.43,0,0,0,.59,4.47,18.36,18.36,0,0,0-2.11-3.42,19,19,0,0,0-6.64-5.34,18.28,18.28,0,0,0-6.62-1.82,8.16,8.16,0,0,0-4.58.69l-.16.1A11.59,11.59,0,0,0,104,74.72a11.82,11.82,0,0,0-8.83-2.56,10.29,10.29,0,0,0-2.65.68,6.93,6.93,0,0,0-.9.42l1,.09A18.15,18.15,0,0,1,95,73.8Z"/><path class="cls-2" d="M123.47,133.35c-3.62-1.38-7.82-.36-11.14,1.72a26.16,26.16,0,0,0-4.44,3.47c-1.3,1.25-2.42,2.48-3.49,3.63a35.36,35.36,0,0,1-6,5.51,13.17,13.17,0,0,1-2.69,1.46,5.52,5.52,0,0,1-2.25.33A2.72,2.72,0,0,1,92.1,149a3.05,3.05,0,0,1-.4-.36,3,3,0,0,0,.31.46,2.88,2.88,0,0,0,1.35.89,5.62,5.62,0,0,0,2.59.18,13.25,13.25,0,0,0,3.26-1,28.68,28.68,0,0,0,7.12-5,54.58,54.58,0,0,1,7.7-6.28A14.78,14.78,0,0,1,118.4,136a8.62,8.62,0,0,1,4.13,0,2.49,2.49,0,0,1,2,2,3.53,3.53,0,0,1-.9,2.83,6.21,6.21,0,0,1-4.69,1.77,1.08,1.08,0,0,1-.67-.31.87.87,0,0,1-.22-.53.61.61,0,0,1,.17-.47.67.67,0,0,0-.31.46,1.06,1.06,0,0,0,.11.71,1.43,1.43,0,0,0,.79.64,6.55,6.55,0,0,0,2.59.22,6.3,6.3,0,0,0,3.33-1.28,5.26,5.26,0,0,0,2-4.17,4.51,4.51,0,0,0-.91-2.74A5.72,5.72,0,0,0,123.47,133.35Z"/><path class="cls-2" d="M56.17,77.65C59.8,79,64,78,67.32,75.93a26.16,26.16,0,0,0,4.44-3.47c1.29-1.25,2.41-2.48,3.48-3.63a36.14,36.14,0,0,1,6-5.51,13.22,13.22,0,0,1,2.7-1.46,5.48,5.48,0,0,1,2.25-.33,2.71,2.71,0,0,1,1.36.49,2.37,2.37,0,0,1,.4.36,2.47,2.47,0,0,0-.3-.46A2.93,2.93,0,0,0,86.29,61a5.68,5.68,0,0,0-2.6-.18,13.05,13.05,0,0,0-3.25,1,28.71,28.71,0,0,0-7.13,5,54.58,54.58,0,0,1-7.7,6.28A14.67,14.67,0,0,1,61.24,75a8.62,8.62,0,0,1-4.13,0,2.48,2.48,0,0,1-2-2A3.49,3.49,0,0,1,56,70.18a6.17,6.17,0,0,1,4.69-1.77,1.11,1.11,0,0,1,.68.31.93.93,0,0,1,.22.53.66.66,0,0,1-.17.47.7.7,0,0,0,.31-.46,1.12,1.12,0,0,0-.11-.71,1.51,1.51,0,0,0-.79-.64,6.62,6.62,0,0,0-2.6-.22A6.37,6.37,0,0,0,54.88,69a5.29,5.29,0,0,0-2,4.17,4.52,4.52,0,0,0,.92,2.74A5.63,5.63,0,0,0,56.17,77.65Z"/><path class="cls-2" d="M87.54,149a2.71,2.71,0,0,1-1.36.49,5.48,5.48,0,0,1-2.25-.33,13.22,13.22,0,0,1-2.7-1.46,36.14,36.14,0,0,1-6-5.51c-1.07-1.15-2.19-2.38-3.48-3.63a26.16,26.16,0,0,0-4.44-3.47C64,133,59.8,132,56.17,133.35a5.63,5.63,0,0,0-2.4,1.77,4.52,4.52,0,0,0-.92,2.74,5.29,5.29,0,0,0,2,4.17,6.37,6.37,0,0,0,3.33,1.28,6.62,6.62,0,0,0,2.6-.22,1.51,1.51,0,0,0,.79-.64,1.12,1.12,0,0,0,.11-.71.7.7,0,0,0-.31-.46.66.66,0,0,1,.17.47.93.93,0,0,1-.22.53,1.11,1.11,0,0,1-.68.31A6.21,6.21,0,0,1,56,140.82a3.49,3.49,0,0,1-.89-2.83,2.48,2.48,0,0,1,2-2,8.62,8.62,0,0,1,4.13,0,14.67,14.67,0,0,1,4.37,1.88,54.58,54.58,0,0,1,7.7,6.28,28.71,28.71,0,0,0,7.13,5,13.05,13.05,0,0,0,3.25,1,5.68,5.68,0,0,0,2.6-.18,2.93,2.93,0,0,0,1.35-.89,2.47,2.47,0,0,0,.3-.46A3.05,3.05,0,0,1,87.54,149Z"/><path class="cls-2" d="M92.1,62a2.72,2.72,0,0,1,1.37-.49,5.52,5.52,0,0,1,2.25.33,13.17,13.17,0,0,1,2.69,1.46,35.36,35.36,0,0,1,6,5.51c1.07,1.15,2.19,2.38,3.49,3.63a26.16,26.16,0,0,0,4.44,3.47c3.32,2.07,7.52,3.1,11.14,1.72a5.72,5.72,0,0,0,2.41-1.77,4.51,4.51,0,0,0,.91-2.74,5.26,5.26,0,0,0-2-4.17,6.3,6.3,0,0,0-3.33-1.28,6.55,6.55,0,0,0-2.59.22,1.43,1.43,0,0,0-.79.64,1.06,1.06,0,0,0-.11.71.67.67,0,0,0,.31.46.61.61,0,0,1-.17-.47.85.85,0,0,1,.22-.53,1.08,1.08,0,0,1,.67-.31,6.17,6.17,0,0,1,4.69,1.77,3.52,3.52,0,0,1,.9,2.83,2.49,2.49,0,0,1-2,2,8.62,8.62,0,0,1-4.13,0A14.78,14.78,0,0,1,114,73.13a54.58,54.58,0,0,1-7.7-6.28,28.68,28.68,0,0,0-7.12-5,13.25,13.25,0,0,0-3.26-1,5.62,5.62,0,0,0-2.59.18,2.88,2.88,0,0,0-1.35.89,3,3,0,0,0-.31.46A2.37,2.37,0,0,1,92.1,62Z"/><path class="cls-2" d="M134.91,113.49c1.17-1.67,2.2-3,2.89-3.94l1.08-1.46s-.53.38-1.45,1.1-2.24,1.78-3.77,3.23a27.67,27.67,0,0,0-4.75,5.83c-.31.54-.62,1.11-.9,1.71.12-.45.23-.89.32-1.33a18.69,18.69,0,0,0,.08-6.86,16.9,16.9,0,0,0-1.34-4.33,11.76,11.76,0,0,0-.55-1.09l-.21-.37.08.42c0,.27.13.67.19,1.18a21.44,21.44,0,0,1,.19,4.3,22,22,0,0,1-4.57,12.49,22.43,22.43,0,0,1-11,7.57,8.21,8.21,0,0,1-4.1.45l-.12,0c0-.07.08-.15.11-.22a11.77,11.77,0,0,0,1-4,10.25,10.25,0,0,0-.16-2.74,8.25,8.25,0,0,0-.23-1l-.28.94a18.31,18.31,0,0,1-.92,2.36A17.46,17.46,0,0,1,95,137.2a18.15,18.15,0,0,1-2.49.45l-1,.09a6.93,6.93,0,0,0,.9.42,10.29,10.29,0,0,0,2.65.68,11.47,11.47,0,0,0,11.66-6.07l.16.1a8.16,8.16,0,0,0,4.58.69,18.28,18.28,0,0,0,6.62-1.82,19,19,0,0,0,6.64-5.34,18.36,18.36,0,0,0,2.11-3.42,15.43,15.43,0,0,0-.59,4.47,9.26,9.26,0,0,0,1.71,5.2,5.73,5.73,0,0,0,2.25,1.86,4.94,4.94,0,0,0,2.89.34,6,6,0,0,0,3.93-2.7,4.94,4.94,0,0,0,.73-2.09,4.29,4.29,0,0,0-.3-2,3.56,3.56,0,0,0-2.45-2.21,3,3,0,0,0-2.32.49,2.32,2.32,0,0,0-.88,1.1,1.84,1.84,0,0,0-.12.46,2.83,2.83,0,0,1,.24-.39,2.21,2.21,0,0,1,1-.72,2.34,2.34,0,0,1,1.76,0,2.39,2.39,0,0,1,1.21,1.72,2.68,2.68,0,0,1-.7,2.31,3.81,3.81,0,0,1-2.49,1.26,2.38,2.38,0,0,1-2.19-1.28,7.05,7.05,0,0,1-1-3.47,18.51,18.51,0,0,1,1.79-7.83A36.49,36.49,0,0,1,134.91,113.49Z"/><path class="cls-2" d="M44.74,97.51c-1.18,1.67-2.2,3-2.9,3.94l-1.07,1.46s.52-.38,1.44-1.1S44.45,100,46,98.58a27.37,27.37,0,0,0,4.75-5.83q.48-.81.9-1.71c-.12.45-.23.89-.31,1.33a18.93,18.93,0,0,0-.09,6.86,17,17,0,0,0,1.34,4.33,11.76,11.76,0,0,0,.55,1.09l.21.37-.07-.42c0-.27-.14-.67-.2-1.18a23.05,23.05,0,0,1-.19-4.3,22,22,0,0,1,4.58-12.49,22.37,22.37,0,0,1,11-7.57,8.22,8.22,0,0,1,4.1-.45l.13,0-.12.22a11.51,11.51,0,0,0-1,4,10.32,10.32,0,0,0,.15,2.74,9.34,9.34,0,0,0,.24,1l.27-.94a17.2,17.2,0,0,1,.93-2.36A17.42,17.42,0,0,1,84.61,73.8a18,18,0,0,1,2.5-.45l1-.09a7.12,7.12,0,0,0-.89-.42,10.27,10.27,0,0,0-2.66-.68,11.65,11.65,0,0,0-4.15.25,11.37,11.37,0,0,0-7.51,5.82l-.16-.1a8.12,8.12,0,0,0-4.57-.69,18.33,18.33,0,0,0-6.63,1.82,19,19,0,0,0-6.63,5.34A18.36,18.36,0,0,0,52.76,88a15.78,15.78,0,0,0,.59-4.47,9.41,9.41,0,0,0-1.71-5.2,5.76,5.76,0,0,0-2.26-1.86,5,5,0,0,0-2.88-.35,6.07,6.07,0,0,0-3.94,2.71,4.93,4.93,0,0,0-.72,2.09,4.18,4.18,0,0,0,.29,2,3.62,3.62,0,0,0,2.46,2.21,3,3,0,0,0,2.31-.49,2.35,2.35,0,0,0,.89-1.1,2,2,0,0,0,.11-.46,1.57,1.57,0,0,1-.23.39,2.19,2.19,0,0,1-1,.72,2.34,2.34,0,0,1-1.76,0,2.39,2.39,0,0,1-1.21-1.72,2.71,2.71,0,0,1,.7-2.31,3.83,3.83,0,0,1,2.5-1.26,2.39,2.39,0,0,1,2.19,1.28,7.16,7.16,0,0,1,1,3.47,18.81,18.81,0,0,1-1.79,7.83A37.2,37.2,0,0,1,44.74,97.51Z"/><path class="cls-2" d="M114.6,143a7.8,7.8,0,0,0-3,.38,13.39,13.39,0,0,0-4,2.17c-1.32,1-2.56,2.27-3.8,3.43a17.61,17.61,0,0,1-3.64,2.79,15.46,15.46,0,0,1-3.57,1.46,16.43,16.43,0,0,1-2.71.48l-.78.05h-.28l.25.13c.17.08.41.19.74.31a10.55,10.55,0,0,0,2.91.65,11.62,11.62,0,0,0,4.53-.54,12.66,12.66,0,0,0,4.79-2.94,49.57,49.57,0,0,0,3.45-3.81,19.52,19.52,0,0,1,2.81-2.72,9.18,9.18,0,0,1,2.34-1.34c.3-.11.56-.19.73-.24l.27-.07-.27-.07A5.76,5.76,0,0,0,114.6,143Z"/><path class="cls-2" d="M65,68a7.86,7.86,0,0,0,3-.38,13.35,13.35,0,0,0,4-2.17c1.32-1,2.57-2.27,3.81-3.43a17.1,17.1,0,0,1,3.64-2.79A15.4,15.4,0,0,1,83,57.73a16.52,16.52,0,0,1,2.72-.48l.77,0h.28l-.25-.13a6.89,6.89,0,0,0-.73-.31,10.72,10.72,0,0,0-2.92-.65,11.59,11.59,0,0,0-4.52.54,12.69,12.69,0,0,0-4.8,2.94c-1.4,1.33-2.46,2.68-3.45,3.81a19.5,19.5,0,0,1-2.8,2.72A9.35,9.35,0,0,1,65,67.45l-.73.24-.27.07.27.07A5.57,5.57,0,0,0,65,68Z"/><path class="cls-2" d="M85.74,153.75a16.52,16.52,0,0,1-2.72-.48,15.4,15.4,0,0,1-3.56-1.46A17.1,17.1,0,0,1,75.82,149c-1.24-1.16-2.49-2.41-3.81-3.43a13.35,13.35,0,0,0-4-2.17,7.84,7.84,0,0,0-3-.38,5.51,5.51,0,0,0-.8.13l-.27.07.27.07.73.24a9.35,9.35,0,0,1,2.34,1.34,19.5,19.5,0,0,1,2.8,2.72c1,1.13,2,2.48,3.45,3.81a12.69,12.69,0,0,0,4.8,2.94,11.59,11.59,0,0,0,4.52.54,10.72,10.72,0,0,0,2.92-.65,6.89,6.89,0,0,0,.73-.31l.25-.13h-.28Z"/><path class="cls-2" d="M93.91,57.25a16.43,16.43,0,0,1,2.71.48,15.46,15.46,0,0,1,3.57,1.46A17.61,17.61,0,0,1,103.83,62c1.24,1.16,2.48,2.41,3.8,3.43a13.39,13.39,0,0,0,4,2.17,7.8,7.8,0,0,0,3,.38,5.76,5.76,0,0,0,.8-.13l.27-.07-.27-.07c-.17,0-.43-.13-.73-.24a9.18,9.18,0,0,1-2.34-1.34,19.52,19.52,0,0,1-2.81-2.72,49.57,49.57,0,0,0-3.45-3.81,12.66,12.66,0,0,0-4.79-2.94,11.62,11.62,0,0,0-4.53-.54,10.55,10.55,0,0,0-2.91.65c-.33.12-.57.23-.74.31l-.25.13h.28Z"/><path class="cls-2" d="M122.66,110.34a8.94,8.94,0,0,0-.17-1c-.13-.54-.21-.83-.21-.83l-.3.8c-.09.26-.2.56-.35.91s-.27.75-.47,1.17c-.35.86-.82,1.83-1.34,2.88s-1.14,2.15-1.8,3.29-1.35,2.21-2,3.19-1.29,1.85-1.86,2.57c-.27.38-.55.69-.79,1s-.45.54-.63.74l-.55.65s.3-.06.83-.22a7.36,7.36,0,0,0,1-.33,11.39,11.39,0,0,0,1.22-.56,14.23,14.23,0,0,0,5.64-5.37,15,15,0,0,0,1.58-4,13.42,13.42,0,0,0,.34-3.51A8.74,8.74,0,0,0,122.66,110.34Z"/><path class="cls-2" d="M63.62,90.25c.66-1,1.28-1.85,1.85-2.57.28-.38.56-.69.79-1s.45-.54.63-.74l.55-.65s-.29.06-.83.22a7.28,7.28,0,0,0-1,.33,11.48,11.48,0,0,0-1.23.56,13.83,13.83,0,0,0-2.89,2,15,15,0,0,0-2.74,3.36,14.67,14.67,0,0,0-1.59,4,14.34,14.34,0,0,0-.34,3.51,10.22,10.22,0,0,0,.11,1.34,6.58,6.58,0,0,0,.18,1c.12.55.21.84.21.84l.3-.8a8.33,8.33,0,0,1,.34-.91c.15-.35.28-.75.48-1.17.34-.86.81-1.83,1.33-2.88s1.15-2.15,1.81-3.29S63,91.23,63.62,90.25Z"/><path class="cls-2" d="M58,110.22a9.17,9.17,0,0,1-.34-.91l-.3-.8s-.09.29-.21.83a7,7,0,0,0-.18,1,10.22,10.22,0,0,0-.11,1.34,14.34,14.34,0,0,0,.34,3.51,14.67,14.67,0,0,0,1.59,4,15,15,0,0,0,2.74,3.36,13.83,13.83,0,0,0,2.89,2,11.48,11.48,0,0,0,1.23.56,7.28,7.28,0,0,0,1,.33c.54.16.83.22.83.22l-.55-.65c-.18-.2-.39-.45-.63-.74s-.51-.61-.79-1c-.57-.72-1.19-1.61-1.85-2.57s-1.32-2-2-3.19-1.27-2.25-1.81-3.29-1-2-1.33-2.88C58.29,111,58.16,110.57,58,110.22Z"/><path class="cls-2" d="M122.43,95.81a15,15,0,0,0-1.58-4,14.77,14.77,0,0,0-2.75-3.36,13.83,13.83,0,0,0-2.89-2,11.39,11.39,0,0,0-1.22-.56,7.36,7.36,0,0,0-1-.33c-.53-.16-.83-.22-.83-.22l.55.65c.18.2.4.44.63.74s.52.61.79,1c.57.72,1.2,1.61,1.86,2.57s1.31,2,2,3.19,1.26,2.25,1.8,3.29,1,2,1.34,2.88c.2.42.33.82.47,1.17s.26.65.35.91l.3.8s.08-.29.21-.84a8.35,8.35,0,0,0,.17-1,8.85,8.85,0,0,0,.11-1.34A13.42,13.42,0,0,0,122.43,95.81Z"/><path class="cls-2" d="M94,145.87a10.46,10.46,0,0,0,5.52-1.56,10.34,10.34,0,0,0,3.8-4.28,8.73,8.73,0,0,0,.61-1.65c.1-.41.14-.63.14-.63l-6.3,3.78-6.15,4a6.26,6.26,0,0,0,.63.15A8.35,8.35,0,0,0,94,145.87Z"/><path class="cls-2" d="M85.68,65.13A10.2,10.2,0,0,0,76.37,71a8.08,8.08,0,0,0-.61,1.65c-.11.41-.15.63-.15.63l6.3-3.78,6.16-4-.63-.14A8.38,8.38,0,0,0,85.68,65.13Z"/><path class="cls-2" d="M75.61,137.75s0,.22.15.63a8.08,8.08,0,0,0,.61,1.65,10.2,10.2,0,0,0,9.31,5.84,8.38,8.38,0,0,0,1.76-.17c.4-.08.63-.15.63-.15l-6.16-4Z"/><path class="cls-2" d="M104,73.25s0-.22-.14-.63a8.73,8.73,0,0,0-.61-1.65,10.34,10.34,0,0,0-3.8-4.28A10.46,10.46,0,0,0,94,65.13a8.35,8.35,0,0,0-1.75.17c-.41.08-.63.14-.63.14l6.15,4Z"/><path class="cls-2" d="M92.38,115.93a7.58,7.58,0,0,0,7-6.59,5.94,5.94,0,0,0,0-1.56c0-.37-.08-.57-.08-.57l-.41.4c-.24.26-.6.62-1,1-.84.83-1.95,1.78-3.08,2.86s-2.14,2.12-3,2.92c-.43.4-.8.74-1.07,1l-.43.38s.2,0,.57.11A6.49,6.49,0,0,0,92.38,115.93Z"/><path class="cls-2" d="M87.26,95.07a7.8,7.8,0,0,0-4.65,2.06,7.71,7.71,0,0,0-2.3,4.53,7,7,0,0,0,0,1.56c0,.37.09.57.09.57s.14-.15.4-.4.6-.62,1-1c.84-.83,2-1.78,3.08-2.86s2.15-2.12,3-2.92c.42-.4.8-.74,1.07-1l.42-.38s-.2,0-.56-.11A6.61,6.61,0,0,0,87.26,95.07Z"/><path class="cls-2" d="M87.89,114.41c-.87-.8-1.89-1.86-3-2.92s-2.24-2-3.08-2.86c-.42-.4-.78-.76-1-1l-.4-.4s0,.2-.09.57a7,7,0,0,0,0,1.56,7.71,7.71,0,0,0,2.3,4.53,7.8,7.8,0,0,0,4.65,2.06,6.61,6.61,0,0,0,1.56-.06c.36-.06.56-.11.56-.11l-.42-.38C88.69,115.15,88.31,114.81,87.89,114.41Z"/><path class="cls-2" d="M91.76,96.59c.87.8,1.88,1.86,3,2.92s2.24,2,3.08,2.86c.42.4.78.76,1,1l.41.4s0-.2.08-.57a5.94,5.94,0,0,0,0-1.56,7.58,7.58,0,0,0-7-6.59,6.49,6.49,0,0,0-1.55.06c-.37.06-.57.11-.57.11l.43.38C91,95.85,91.33,96.19,91.76,96.59Z"/><path class="cls-2" d="M-6.38,77.85A3.93,3.93,0,0,1-7,77.56l-.2-.13H-7a4,4,0,0,0,.65-.08,6.06,6.06,0,0,0,2-.87,14.12,14.12,0,0,0,2.46-2.09c.87-.9,1.78-1.91,2.71-3a53.7,53.7,0,0,0,4.44-6c.54-.84.95-1.56,1.24-2.06s.42-.72.44-.77c-.17.21-.35.42-.53.61a14.68,14.68,0,0,1-7,4,14.12,14.12,0,0,1-5.28.35,11.8,11.8,0,0,1-1.39-.26l-.48-.12.49,0a12.94,12.94,0,0,0,1.38-.11,16.34,16.34,0,0,0,4.74-1.38,14.91,14.91,0,0,0,5.44-4.32,14.49,14.49,0,0,0,2-3.5,14.69,14.69,0,0,0,.63-2c.09-.35.16-.71.22-1.06l.08-.54,0-.28v-.11a14.9,14.9,0,0,0-2.94-7.51A14.91,14.91,0,0,0-1.06,42,16,16,0,0,0-5.8,40.65c-.59-.07-1.06-.11-1.38-.12l-.49,0,.48-.12c.31-.08.78-.17,1.39-.26a14.56,14.56,0,0,1,5.28.35,14.79,14.79,0,0,1,7,4.06c.18.19.36.39.53.6l-.44-.77c-.29-.5-.7-1.21-1.24-2a52.8,52.8,0,0,0-4.44-6c-.93-1.09-1.84-2.1-2.71-3a14.68,14.68,0,0,0-2.46-2.1,6,6,0,0,0-2-.86A4,4,0,0,0-7,30.29l-.23,0,.2-.12a3.93,3.93,0,0,1,.63-.29,5.38,5.38,0,0,1,2.65-.17A9.91,9.91,0,0,1-.11,31.17a15.09,15.09,0,0,1,3.49,3l.26.33h0c.37.05.9.15,1.59.31a21,21,0,0,1,5.59,2.24,22.19,22.19,0,0,1,6.78,6.06,21.93,21.93,0,0,1,4.07,10.52v.38h0v.17l0,.18-.06.38c0,.25-.07.5-.12.74-.08.49-.19,1-.31,1.46a23,23,0,0,1-.89,2.77,21.5,21.5,0,0,1-2.65,4.8,22.33,22.33,0,0,1-6.78,6.06,21,21,0,0,1-5.59,2.24,14.54,14.54,0,0,1-1.59.3h0c-.09.11-.17.22-.26.32A14.91,14.91,0,0,1-.11,76.54,9.91,9.91,0,0,1-3.73,78,5.5,5.5,0,0,1-6.38,77.85ZM3.81,73l1.26-.57A24.76,24.76,0,0,0,9.9,69.27,24.18,24.18,0,0,0,15.3,63a22.24,22.24,0,0,0,2-4.35A23.46,23.46,0,0,0,18,56.24c.09-.42.18-.84.25-1.27l.1-.65,0-.32,0-.14a23,23,0,0,0-3.1-9.17,24,24,0,0,0-5.4-6.25,24.76,24.76,0,0,0-4.83-3.11q-.78-.37-1.26-.57a15.7,15.7,0,0,1,3.05,7,14.42,14.42,0,0,1,.2,2.5c0,.57,0,.88,0,.9a15.53,15.53,0,0,1,3.59,8.55V54h0v.14l0,.17,0,.34-.11.67c-.08.44-.18.88-.29,1.31a16.63,16.63,0,0,1-.9,2.45A15.24,15.24,0,0,1,7,62.55s0,.33,0,.91a14.42,14.42,0,0,1-.2,2.5A15.75,15.75,0,0,1,3.81,73Z"/><path class="cls-2" d="M-2.91,22.15a17.79,17.79,0,0,1,6.83,3.46,17.75,17.75,0,0,1,4.69,6A17.76,17.76,0,0,1,9.54,34c.17.6.27.93.27.93a9.34,9.34,0,0,0,.24-1,10.65,10.65,0,0,0,.16-2.74,11.83,11.83,0,0,0-1-4L9.05,27l.13,0a8.33,8.33,0,0,1,4.1.45,22.44,22.44,0,0,1,11,7.57,21.93,21.93,0,0,1,4.58,12.5,22.94,22.94,0,0,1-.19,4.29c-.06.52-.15.91-.2,1.18l-.07.42.21-.37c.13-.24.34-.6.55-1.08a17,17,0,0,0,1.34-4.34,18.87,18.87,0,0,0-.09-6.85c-.08-.44-.19-.89-.31-1.34q.42.9.9,1.71a27.12,27.12,0,0,0,4.75,5.83,48.79,48.79,0,0,0,3.77,3.23c.92.72,1.44,1.1,1.44,1.1L39.86,49.8c-.7-.93-1.72-2.27-2.9-3.94a36.77,36.77,0,0,1-3.54-6A18.62,18.62,0,0,1,31.64,32a7,7,0,0,1,1-3.47,2.4,2.4,0,0,1,2.18-1.28,3.85,3.85,0,0,1,2.5,1.26,2.71,2.71,0,0,1,.7,2.31,2.37,2.37,0,0,1-1.21,1.72,2.35,2.35,0,0,1-1.76.06,2.24,2.24,0,0,1-1-.72,1.82,1.82,0,0,1-.24-.4,1.92,1.92,0,0,0,.11.46A2.48,2.48,0,0,0,34.8,33a3,3,0,0,0,2.32.48,3.56,3.56,0,0,0,2.45-2.21,4.29,4.29,0,0,0,.3-2,5,5,0,0,0-.73-2.08,6,6,0,0,0-3.93-2.71,4.93,4.93,0,0,0-2.89.34,5.78,5.78,0,0,0-2.26,1.87,9.27,9.27,0,0,0-1.7,5.19,15.74,15.74,0,0,0,.58,4.47A17.77,17.77,0,0,0,26.83,33a19,19,0,0,0-6.63-5.35,18.3,18.3,0,0,0-6.62-1.81A8.26,8.26,0,0,0,9,26.48l-.16.1A11.75,11.75,0,0,0,6,23.07a11.83,11.83,0,0,0-4.66-2.31,11.69,11.69,0,0,0-4.16-.24,10.44,10.44,0,0,0-2.66.67,9.58,9.58,0,0,0-.89.42l1,.09A18.15,18.15,0,0,1-2.91,22.15Z"/><path class="cls-2" d="M25.53,81.71c-3.63-1.39-7.83-.36-11.15,1.71A26.6,26.6,0,0,0,9.94,86.9c-1.29,1.24-2.41,2.47-3.48,3.62A35.85,35.85,0,0,1,.47,96a13.37,13.37,0,0,1-2.7,1.45,5.14,5.14,0,0,1-2.24.33,2.72,2.72,0,0,1-1.37-.49,3.67,3.67,0,0,1-.4-.35,3.29,3.29,0,0,0,.3.45,2.94,2.94,0,0,0,1.35.9A5.83,5.83,0,0,0-2,98.5a12.65,12.65,0,0,0,3.25-1,28.92,28.92,0,0,0,7.13-5,54.64,54.64,0,0,1,7.7-6.29,15,15,0,0,1,4.37-1.88,8.62,8.62,0,0,1,4.13,0,2.48,2.48,0,0,1,2,2,3.46,3.46,0,0,1-.89,2.82A6.22,6.22,0,0,1,21,91a1.08,1.08,0,0,1-.67-.31.83.83,0,0,1-.22-.53.55.55,0,0,1,.17-.47.6.6,0,0,0-.31.46,1.08,1.08,0,0,0,.1.7,1.51,1.51,0,0,0,.79.64,6.44,6.44,0,0,0,2.6.22,6.37,6.37,0,0,0,3.33-1.27,5.27,5.27,0,0,0,2-4.18,4.56,4.56,0,0,0-.92-2.74A5.6,5.6,0,0,0,25.53,81.71Z"/><path class="cls-2" d="M-5.84,10.38a2.71,2.71,0,0,1,1.37-.5,5.32,5.32,0,0,1,2.24.34,12.89,12.89,0,0,1,2.7,1.45,35.75,35.75,0,0,1,6,5.51c1.07,1.15,2.19,2.39,3.48,3.63a26.6,26.6,0,0,0,4.44,3.48C17.7,26.36,21.9,27.38,25.53,26a5.6,5.6,0,0,0,2.4-1.76,4.57,4.57,0,0,0,.92-2.75,5.26,5.26,0,0,0-2-4.17,6.85,6.85,0,0,0-5.93-1.05,1.49,1.49,0,0,0-.79.63,1.11,1.11,0,0,0-.1.71.63.63,0,0,0,.31.46.55.55,0,0,1-.17-.47.83.83,0,0,1,.22-.53,1.08,1.08,0,0,1,.67-.31,6.22,6.22,0,0,1,4.69,1.78,3.46,3.46,0,0,1,.89,2.82,2.49,2.49,0,0,1-2,2,8.63,8.63,0,0,1-4.13,0,14.53,14.53,0,0,1-4.37-1.88,53.89,53.89,0,0,1-7.7-6.28,28.66,28.66,0,0,0-7.13-5A12.27,12.27,0,0,0-2,9.21a5.83,5.83,0,0,0-2.6.17,2.93,2.93,0,0,0-1.35.89,2.94,2.94,0,0,0-.3.46A3.67,3.67,0,0,1-5.84,10.38Z"/><path class="cls-2" d="M37,61.84c1.18-1.67,2.2-3,2.9-3.94l1.07-1.45s-.52.38-1.44,1.1-2.24,1.77-3.77,3.22A27.37,27.37,0,0,0,31,66.6c-.32.54-.62,1.12-.9,1.71.12-.44.23-.89.31-1.33a18.93,18.93,0,0,0,.09-6.86,17,17,0,0,0-1.34-4.33c-.21-.49-.42-.84-.55-1.09l-.21-.36.07.41c0,.27.14.67.2,1.18a23.1,23.1,0,0,1,.19,4.3,21.9,21.9,0,0,1-4.58,12.49,22.4,22.4,0,0,1-11,7.58,8.31,8.31,0,0,1-4.1.44.61.61,0,0,1-.13,0l.12-.21a11.82,11.82,0,0,0,1-4,10.56,10.56,0,0,0-.16-2.73,9.34,9.34,0,0,0-.24-1s-.1.33-.27.93a17.2,17.2,0,0,1-.93,2.36,17.78,17.78,0,0,1-4.69,6,17.75,17.75,0,0,1-6.83,3.45A17,17,0,0,1-5.4,86l-1,.09a8.46,8.46,0,0,0,.89.41,10.38,10.38,0,0,0,2.66.68,11.49,11.49,0,0,0,4.16-.25A11.57,11.57,0,0,0,6,84.63a11.72,11.72,0,0,0,2.84-3.5l.16.1a8.26,8.26,0,0,0,4.58.68A18.3,18.3,0,0,0,20.2,80.1a19.06,19.06,0,0,0,6.63-5.35,17.54,17.54,0,0,0,2.11-3.42,15.83,15.83,0,0,0-.58,4.47,9.32,9.32,0,0,0,1.7,5.2,5.67,5.67,0,0,0,2.26,1.86,4.86,4.86,0,0,0,2.89.35,6,6,0,0,0,3.93-2.71,5.08,5.08,0,0,0,.73-2.09,4.26,4.26,0,0,0-.3-2,3.56,3.56,0,0,0-2.45-2.21,3,3,0,0,0-2.32.48,2.47,2.47,0,0,0-.89,1.1,2.19,2.19,0,0,0-.11.46,2.35,2.35,0,0,1,.24-.39,2.17,2.17,0,0,1,1-.72,2.3,2.3,0,0,1,1.76.06A2.35,2.35,0,0,1,38,76.9a2.69,2.69,0,0,1-.7,2.3,3.86,3.86,0,0,1-2.5,1.27,2.39,2.39,0,0,1-2.18-1.29,7,7,0,0,1-1-3.47,18.65,18.65,0,0,1,1.78-7.83A37.64,37.64,0,0,1,37,61.84Z"/><path class="cls-2" d="M16.66,91.4a7.43,7.43,0,0,0-3,.38,13.12,13.12,0,0,0-4,2.16c-1.32,1-2.56,2.27-3.81,3.44a18,18,0,0,1-3.63,2.79,15.58,15.58,0,0,1-3.57,1.45A16.52,16.52,0,0,1-4,102.1l-.77.05-.28,0,.25.12a7.5,7.5,0,0,0,.73.32,11.12,11.12,0,0,0,2.92.65,11.62,11.62,0,0,0,4.52-.55,12.62,12.62,0,0,0,4.8-2.94c1.4-1.33,2.46-2.68,3.45-3.8a19.64,19.64,0,0,1,2.81-2.73,9.65,9.65,0,0,1,2.33-1.34,7,7,0,0,1,.74-.23l.26-.08-.27-.06A4.26,4.26,0,0,0,16.66,91.4Z"/><path class="cls-2" d="M-4,5.61a17.44,17.44,0,0,1,2.72.47A15.64,15.64,0,0,1,2.25,7.54a17.66,17.66,0,0,1,3.63,2.79c1.25,1.17,2.49,2.41,3.81,3.43a12.83,12.83,0,0,0,4,2.17,7.8,7.8,0,0,0,3,.38,5.32,5.32,0,0,0,.79-.13l.27-.07L17.46,16a7.47,7.47,0,0,1-.74-.24,9.07,9.07,0,0,1-2.33-1.33,19.64,19.64,0,0,1-2.81-2.73c-1-1.13-2.05-2.48-3.45-3.81A12.62,12.62,0,0,0,3.33,5a11.59,11.59,0,0,0-4.52-.54,10.72,10.72,0,0,0-2.92.65,7.5,7.5,0,0,0-.73.32l-.25.12.28,0A6.43,6.43,0,0,1-4,5.61Z"/><path class="cls-2" d="M24.72,58.69a8.35,8.35,0,0,0-.17-1c-.13-.54-.22-.83-.22-.83s-.1.28-.3.8c-.08.25-.19.56-.34.91s-.28.74-.47,1.17c-.35.85-.82,1.83-1.34,2.87s-1.14,2.15-1.81,3.3-1.34,2.2-2,3.18S16.8,71,16.23,71.67c-.28.38-.56.69-.79,1s-.45.54-.63.74l-.55.66s.3-.07.83-.23A6,6,0,0,0,16,73.5a9.19,9.19,0,0,0,1.23-.56,13.83,13.83,0,0,0,2.89-2,14,14,0,0,0,4.33-7.39,13.75,13.75,0,0,0,.34-3.5A10.38,10.38,0,0,0,24.72,58.69Z"/><path class="cls-2" d="M24.49,44.17a14.09,14.09,0,0,0-4.33-7.4,14.13,14.13,0,0,0-2.89-2A9.19,9.19,0,0,0,16,34.21a7.5,7.5,0,0,0-.95-.34l-.83-.22.55.65c.18.2.4.45.63.75s.51.6.79,1c.57.73,1.19,1.61,1.85,2.57s1.32,2,2,3.19,1.27,2.25,1.81,3.3,1,2,1.34,2.87c.19.42.33.82.47,1.17s.26.66.34.91c.2.51.3.8.3.8s.09-.29.22-.83a8.56,8.56,0,0,0,.17-1,10.22,10.22,0,0,0,.11-1.34A13.75,13.75,0,0,0,24.49,44.17Z"/><path class="cls-2" d="M-4,94.23a10.43,10.43,0,0,0,5.51-1.56,10.53,10.53,0,0,0,3.81-4.29A9.5,9.5,0,0,0,6,86.73c.1-.4.14-.63.14-.63l-6.3,3.79-6.15,4,.63.15A9.87,9.87,0,0,0-4,94.23Z"/><path class="cls-2" d="M6.09,21.61s0-.23-.14-.63a9.5,9.5,0,0,0-.61-1.65A10.47,10.47,0,0,0,1.53,15,10.43,10.43,0,0,0-4,13.48a9,9,0,0,0-1.75.17,6.26,6.26,0,0,0-.63.15l6.15,4Z"/><path class="cls-2" d="M-5.56,64.28A7.68,7.68,0,0,0-.91,62.22a7.71,7.71,0,0,0,2.3-4.53,7,7,0,0,0,0-1.56,4.68,4.68,0,0,0-.09-.57L.93,56c-.24.26-.6.61-1,1-.84.82-1.95,1.78-3.08,2.85s-2.15,2.13-3,2.92c-.43.4-.81.74-1.08,1l-.42.38s.2,0,.56.11A6.11,6.11,0,0,0-5.56,64.28Z"/><path class="cls-2" d="M-6.18,44.94c.86.8,1.88,1.86,3,2.93s2.24,2,3.08,2.85c.42.41.78.76,1,1l.4.4a4.7,4.7,0,0,0,.09-.56,7,7,0,0,0,0-1.56,7.71,7.71,0,0,0-2.3-4.54,7.72,7.72,0,0,0-4.65-2,6.7,6.7,0,0,0-1.56,0,5,5,0,0,0-.56.12l.42.38C-7,44.2-6.61,44.55-6.18,44.94Z"/><path class="cls-2" d="M75.23,11.53l-.53-.61.44.77c.29.5.7,1.21,1.24,2.05a51.82,51.82,0,0,0,4.45,6c.92,1.09,1.83,2.1,2.71,3A14.65,14.65,0,0,0,86,24.83a6,6,0,0,0,2,.86,4,4,0,0,0,.65.08l.24,0-.21.12a3.21,3.21,0,0,1-.63.29,5.25,5.25,0,0,1-2.65.17,9.74,9.74,0,0,1-3.62-1.48,15.29,15.29,0,0,1-3.49-3l-.26-.33h0c-.37-.05-.9-.15-1.59-.31A21.22,21.22,0,0,1,70.87,19a22.23,22.23,0,0,1-6.77-6.07A21.84,21.84,0,0,1,60,2.39V2h0V1.83l0-.18,0-.38c0-.25.07-.49.12-.74.09-.49.2-1,.31-1.46a23,23,0,0,1,.89-2.77A20.85,20.85,0,0,1,64.1-8.49a22.1,22.1,0,0,1,6.77-6.07,21,21,0,0,1,5.59-2.24,14.54,14.54,0,0,1,1.59-.3h0c.09-.1.17-.22.26-.32a15.35,15.35,0,0,1,3.49-3.05A9.91,9.91,0,0,1,85.43-22a5.49,5.49,0,0,1,2.65.17,3.93,3.93,0,0,1,.63.29l.21.13h-.24a5.6,5.6,0,0,0-.65.08,6.06,6.06,0,0,0-2,.87,14.09,14.09,0,0,0-2.45,2.09c-.88.9-1.79,1.92-2.71,3a51,51,0,0,0-4.45,6c-.54.83-.95,1.55-1.24,2.05s-.42.72-.44.77c.17-.21.35-.42.53-.61a14.76,14.76,0,0,1,7-4,14.34,14.34,0,0,1,5.28-.35,11.8,11.8,0,0,1,1.39.26l.48.12-.49,0A12.94,12.94,0,0,0,87.5-11a16.43,16.43,0,0,0-4.74,1.38A14.91,14.91,0,0,0,77.32-5.3a14.47,14.47,0,0,0-2,3.5,13.21,13.21,0,0,0-.64,2c-.08.34-.16.7-.22,1.05l-.08.54,0,.28V2.2a14.9,14.9,0,0,0,2.94,7.51A14.81,14.81,0,0,0,82.76,14a16.12,16.12,0,0,0,4.74,1.38c.59.07,1.06.11,1.38.12l.49,0-.48.12c-.31.08-.78.17-1.39.26a14.56,14.56,0,0,1-5.28-.35A14.76,14.76,0,0,1,75.23,11.53Zm-.59.28c0-.57,0-.88,0-.9a15.47,15.47,0,0,1-3.6-8.55V1.89l0-.17,0-.34.11-.67c.08-.44.18-.88.3-1.31A15.53,15.53,0,0,1,72.47-3a15.15,15.15,0,0,1,2.22-3.44s0-.33,0-.91a14.42,14.42,0,0,1,.2-2.5,15.75,15.75,0,0,1,3-7c-.32.14-.74.33-1.26.58a24.63,24.63,0,0,0-4.83,3.1A24.37,24.37,0,0,0,66.4-7a22.24,22.24,0,0,0-2,4.35c-.26.79-.49,1.6-.68,2.43-.09.42-.18.85-.25,1.27l-.1.65,0,.33,0,.13a23.17,23.17,0,0,0,3.1,9.17,24.2,24.2,0,0,0,5.4,6.25,24.76,24.76,0,0,0,4.83,3.11q.78.38,1.26.57a15.66,15.66,0,0,1-3-7A14.42,14.42,0,0,1,74.64,11.81Z"/><path class="cls-2" d="M91.57,26.2a3.68,3.68,0,0,1-.64-.29l-.2-.12.24,0a3.91,3.91,0,0,0,.64-.08,5.93,5.93,0,0,0,2-.86,14.29,14.29,0,0,0,2.46-2.1c.88-.9,1.79-1.91,2.71-3a54.28,54.28,0,0,0,4.45-6c.53-.84,1-1.55,1.24-2.05s.41-.73.44-.77c-.18.2-.35.41-.54.61a14.78,14.78,0,0,1-7,4.05,14.61,14.61,0,0,1-5.29.35c-.61-.09-1.08-.18-1.39-.26l-.47-.12.49,0c.31,0,.78,0,1.37-.12A16,16,0,0,0,96.88,14a14.81,14.81,0,0,0,5.44-4.32,14.62,14.62,0,0,0,2-3.49,14.85,14.85,0,0,0,.64-2c.08-.35.15-.7.21-1.06l.08-.54,0-.27,0-.11a15.07,15.07,0,0,0-3-7.52,14.91,14.91,0,0,0-5.44-4.32A16.26,16.26,0,0,0,92.14-11a13,13,0,0,0-1.37-.11l-.49,0,.47-.12a11.8,11.8,0,0,1,1.39-.26,14.39,14.39,0,0,1,5.29.35,14.78,14.78,0,0,1,7,4.05c.19.19.36.4.53.6l-.43-.76c-.29-.5-.71-1.22-1.24-2.05a53.35,53.35,0,0,0-4.45-6c-.92-1.09-1.83-2.11-2.71-3a13.77,13.77,0,0,0-2.46-2.09,6,6,0,0,0-2-.87,5.48,5.48,0,0,0-.64-.08h-.24l.2-.13a4.64,4.64,0,0,1,.64-.29A5.44,5.44,0,0,1,94.21-22a10,10,0,0,1,3.63,1.48,15.31,15.31,0,0,1,3.48,3.05c.1.1.17.22.26.32h0a14.12,14.12,0,0,1,1.59.3,20.84,20.84,0,0,1,5.59,2.24,22.24,22.24,0,0,1,6.78,6.07A21.91,21.91,0,0,1,119.63,2V2.4h0v.17l0,.19,0,.37-.12.74c-.09.5-.2,1-.32,1.46a22.39,22.39,0,0,1-.89,2.77,21.5,21.5,0,0,1-2.65,4.8A22.37,22.37,0,0,1,108.77,19a21.09,21.09,0,0,1-5.59,2.23c-.68.16-1.22.26-1.59.31h0c-.09.11-.16.22-.26.33a15.25,15.25,0,0,1-3.48,3,9.78,9.78,0,0,1-3.63,1.48A5.21,5.21,0,0,1,91.57,26.2Zm10.18-4.9q.5-.19,1.26-.57a25.08,25.08,0,0,0,4.84-3.11,24.39,24.39,0,0,0,5.4-6.25,22.39,22.39,0,0,0,2-4.34,23.67,23.67,0,0,0,.69-2.44c.09-.42.17-.84.24-1.27l.1-.65,0-.32V2.22A23.21,23.21,0,0,0,113.25-7a24.56,24.56,0,0,0-5.4-6.25,25,25,0,0,0-4.84-3.1c-.51-.25-.93-.44-1.26-.58a15.75,15.75,0,0,1,3,7,13.48,13.48,0,0,1,.2,2.5c0,.57,0,.89,0,.91a15.43,15.43,0,0,1,3.59,8.55v.31h0v.15l0,.17,0,.34-.1.66c-.09.45-.19.88-.3,1.31a14.86,14.86,0,0,1-.9,2.45A14.91,14.91,0,0,1,105,10.9s0,.34,0,.91a13.48,13.48,0,0,1-.2,2.5A15.66,15.66,0,0,1,101.75,21.3Z"/><path class="cls-2" d="M84.61,33.91a17.42,17.42,0,0,1-11.52-9.49,17.76,17.76,0,0,1-.93-2.37l-.27-.93a9.34,9.34,0,0,0-.24,1,10.29,10.29,0,0,0-.15,2.74,11.51,11.51,0,0,0,1,4l.12.22-.13,0a8.33,8.33,0,0,1-4.1-.45,22.44,22.44,0,0,1-11-7.57,22,22,0,0,1-4.58-12.5,22.94,22.94,0,0,1,.19-4.29c.06-.52.15-.91.2-1.18l.07-.42-.21.37c-.13.24-.34.6-.55,1.08a17,17,0,0,0-1.34,4.34,18.93,18.93,0,0,0,.09,6.86c.08.43.19.88.31,1.33q-.42-.9-.9-1.71A27.12,27.12,0,0,0,46,9.13,48.79,48.79,0,0,0,42.21,5.9c-.92-.72-1.44-1.1-1.44-1.1l1.07,1.46c.7.93,1.72,2.27,2.9,3.94a37.2,37.2,0,0,1,3.54,6,18.78,18.78,0,0,1,1.79,7.83,7.16,7.16,0,0,1-1,3.47,2.41,2.41,0,0,1-2.19,1.28,3.83,3.83,0,0,1-2.5-1.26,2.71,2.71,0,0,1-.7-2.31,2.39,2.39,0,0,1,1.21-1.72,2.3,2.3,0,0,1,1.76-.05,2.26,2.26,0,0,1,1,.71,1.5,1.5,0,0,1,.23.4,1.92,1.92,0,0,0-.11-.46A2.41,2.41,0,0,0,46.9,23a3,3,0,0,0-2.31-.48,3.6,3.6,0,0,0-2.46,2.21,4.16,4.16,0,0,0-.29,2,4.89,4.89,0,0,0,.72,2.08,6,6,0,0,0,3.94,2.71,4.9,4.9,0,0,0,2.88-.34,5.78,5.78,0,0,0,2.26-1.87,9.35,9.35,0,0,0,1.71-5.19,15.73,15.73,0,0,0-.59-4.47,18.29,18.29,0,0,0,2.11,3.41,19,19,0,0,0,6.63,5.35,18.53,18.53,0,0,0,6.63,1.82,8.3,8.3,0,0,0,4.57-.69l.16-.1a11.37,11.37,0,0,0,7.51,5.82,11.63,11.63,0,0,0,4.15.24,10.33,10.33,0,0,0,2.66-.67c.59-.25.9-.42.9-.42l-1-.09A18,18,0,0,1,84.61,33.91Z"/><path class="cls-2" d="M95-29.49A17.75,17.75,0,0,1,101.86-26a17.82,17.82,0,0,1,4.7,6,18.31,18.31,0,0,1,.92,2.36l.28.93a8.25,8.25,0,0,0,.23-1,10.13,10.13,0,0,0,.16-2.73,11.77,11.77,0,0,0-1-4c0-.08-.08-.15-.11-.22l.12,0a8.3,8.3,0,0,1,4.1.44,22.53,22.53,0,0,1,11,7.58,22,22,0,0,1,4.57,12.49,21.48,21.48,0,0,1-.19,4.3c-.06.51-.15.91-.19,1.18s-.08.41-.08.41l.21-.36c.13-.25.34-.6.55-1.09a17,17,0,0,0,1.34-4.33,18.69,18.69,0,0,0-.08-6.86c-.09-.44-.2-.89-.32-1.33.28.59.59,1.17.9,1.71a27.67,27.67,0,0,0,4.75,5.83c1.53,1.45,2.86,2.5,3.77,3.22s1.45,1.1,1.45,1.1L137.8-1.84c-.69-.94-1.72-2.27-2.89-3.94a36.91,36.91,0,0,1-3.54-6,18.51,18.51,0,0,1-1.79-7.83,7.05,7.05,0,0,1,1-3.47,2.41,2.41,0,0,1,2.19-1.29,3.86,3.86,0,0,1,2.49,1.27,2.68,2.68,0,0,1,.7,2.31,2.35,2.35,0,0,1-1.21,1.71,2.3,2.3,0,0,1-1.76.06,2.21,2.21,0,0,1-1-.72,3.84,3.84,0,0,1-.24-.39,2,2,0,0,0,.12.46,2.32,2.32,0,0,0,.88,1.1,3,3,0,0,0,2.32.48,3.56,3.56,0,0,0,2.45-2.21,4.26,4.26,0,0,0,.3-2,4.94,4.94,0,0,0-.73-2.09,6,6,0,0,0-3.93-2.71,5,5,0,0,0-2.89.35A5.64,5.64,0,0,0,128-24.94a9.26,9.26,0,0,0-1.71,5.2,15.48,15.48,0,0,0,.59,4.47,18,18,0,0,0-2.11-3.42A19,19,0,0,0,118.14-24a18.08,18.08,0,0,0-6.62-1.82,8.16,8.16,0,0,0-4.58.69l-.16.09a11.68,11.68,0,0,0-2.83-3.5,11.54,11.54,0,0,0-4.67-2.31,11.48,11.48,0,0,0-4.16-.25,10.29,10.29,0,0,0-2.65.68,8.18,8.18,0,0,0-.9.41l1,.09A17,17,0,0,1,95-29.49Z"/><path class="cls-2" d="M123.47,30.06c-3.62-1.38-7.82-.36-11.14,1.72a26.16,26.16,0,0,0-4.44,3.47c-1.3,1.24-2.42,2.48-3.49,3.63a35.36,35.36,0,0,1-6,5.51,13.09,13.09,0,0,1-2.69,1.45,5.38,5.38,0,0,1-2.25.34,2.82,2.82,0,0,1-1.37-.49,4.32,4.32,0,0,1-.4-.36,3.83,3.83,0,0,0,.31.46,2.88,2.88,0,0,0,1.35.89,5.91,5.91,0,0,0,2.59.18,13.25,13.25,0,0,0,3.26-1,28.94,28.94,0,0,0,7.12-5,53.89,53.89,0,0,1,7.7-6.28,14.53,14.53,0,0,1,4.37-1.88,8.63,8.63,0,0,1,4.13,0,2.51,2.51,0,0,1,2,2,3.5,3.5,0,0,1-.9,2.82A6.22,6.22,0,0,1,119,39.3a1.08,1.08,0,0,1-.67-.31.89.89,0,0,1-.22-.53.59.59,0,0,1,.17-.47.67.67,0,0,0-.31.46,1.06,1.06,0,0,0,.11.71,1.42,1.42,0,0,0,.79.63,6.35,6.35,0,0,0,2.59.23,6.48,6.48,0,0,0,3.33-1.28,5.26,5.26,0,0,0,2-4.17,4.56,4.56,0,0,0-.91-2.75A5.69,5.69,0,0,0,123.47,30.06Z"/><path class="cls-2" d="M87.54,45.69a2.81,2.81,0,0,1-1.36.49,5.34,5.34,0,0,1-2.25-.34,13.14,13.14,0,0,1-2.7-1.45,36.14,36.14,0,0,1-6-5.51c-1.07-1.15-2.19-2.39-3.48-3.63a26.16,26.16,0,0,0-4.44-3.47C64,29.7,59.8,28.68,56.17,30.06a5.6,5.6,0,0,0-2.4,1.76,4.57,4.57,0,0,0-.92,2.75,5.29,5.29,0,0,0,2,4.17A6.54,6.54,0,0,0,58.21,40a6.42,6.42,0,0,0,2.6-.23,1.49,1.49,0,0,0,.79-.63,1.12,1.12,0,0,0,.11-.71A.7.7,0,0,0,61.4,38a.63.63,0,0,1,.17.47,1,1,0,0,1-.22.53,1.11,1.11,0,0,1-.68.31A6.22,6.22,0,0,1,56,37.52a3.46,3.46,0,0,1-.89-2.82,2.5,2.5,0,0,1,2-2,8.63,8.63,0,0,1,4.13,0,14.42,14.42,0,0,1,4.37,1.88,53.89,53.89,0,0,1,7.7,6.28,29,29,0,0,0,7.13,5,13.05,13.05,0,0,0,3.25,1,6,6,0,0,0,2.6-.18,2.67,2.67,0,0,0,1.65-1.35A4.32,4.32,0,0,1,87.54,45.69Z"/><path class="cls-2" d="M134.91,10.2c1.17-1.67,2.2-3,2.89-3.94l1.08-1.46s-.53.38-1.45,1.1-2.24,1.77-3.77,3.23A27.42,27.42,0,0,0,128.91,15c-.31.54-.62,1.11-.9,1.71.12-.45.23-.9.32-1.33a18.69,18.69,0,0,0,.08-6.86,17,17,0,0,0-1.34-4.34c-.21-.48-.42-.84-.55-1.08l-.21-.37s0,.14.08.42.13.66.19,1.18a21.33,21.33,0,0,1,.19,4.29,22,22,0,0,1-4.57,12.5,22.5,22.5,0,0,1-11,7.57,8.32,8.32,0,0,1-4.1.45l-.12,0c0-.08.08-.15.11-.22a11.77,11.77,0,0,0,1-4,10.21,10.21,0,0,0-.16-2.74,8.25,8.25,0,0,0-.23-1l-.28.93a18.93,18.93,0,0,1-.92,2.37A17.46,17.46,0,0,1,95,33.91a18.15,18.15,0,0,1-2.49.45l-1,.09a9.19,9.19,0,0,0,.9.42,10.35,10.35,0,0,0,2.65.67,11.68,11.68,0,0,0,4.16-.24,11.32,11.32,0,0,0,7.5-5.82l.16.1a8.34,8.34,0,0,0,4.58.69,18.49,18.49,0,0,0,6.62-1.82,19.07,19.07,0,0,0,6.64-5.35,18.29,18.29,0,0,0,2.11-3.41,15.39,15.39,0,0,0-.59,4.47A9.2,9.2,0,0,0,128,29.35a5.75,5.75,0,0,0,2.25,1.87,4.94,4.94,0,0,0,2.89.34,6,6,0,0,0,3.93-2.71,4.9,4.9,0,0,0,.73-2.08,4.29,4.29,0,0,0-.3-2,3.56,3.56,0,0,0-2.45-2.21,3,3,0,0,0-2.32.48,2.38,2.38,0,0,0-.88,1.11,1.74,1.74,0,0,0-.12.46,2.54,2.54,0,0,1,.24-.4,2.36,2.36,0,0,1,2.76-.66A2.37,2.37,0,0,1,136,25.25a2.68,2.68,0,0,1-.7,2.31,3.81,3.81,0,0,1-2.49,1.26,2.4,2.4,0,0,1-2.19-1.28,7.05,7.05,0,0,1-1-3.47,18.47,18.47,0,0,1,1.79-7.83A36.49,36.49,0,0,1,134.91,10.2Z"/><path class="cls-2" d="M44.74-5.78c-1.18,1.67-2.2,3-2.9,3.94L40.77-.39s.52-.38,1.44-1.1S44.45-3.26,46-4.71a27.37,27.37,0,0,0,4.75-5.83c.32-.54.62-1.12.9-1.71-.12.44-.23.89-.31,1.33a18.93,18.93,0,0,0-.09,6.86A17,17,0,0,0,52.57.27c.21.49.42.84.55,1.09l.21.36-.07-.41c0-.27-.14-.67-.2-1.18a23.1,23.1,0,0,1-.19-4.3,22,22,0,0,1,4.58-12.49,22.46,22.46,0,0,1,11-7.58,8.31,8.31,0,0,1,4.1-.44l.13,0-.12.22a11.51,11.51,0,0,0-1,4,10.21,10.21,0,0,0,.15,2.73,9.34,9.34,0,0,0,.24,1s.1-.33.27-.93A17.2,17.2,0,0,1,73.09-20a17.78,17.78,0,0,1,4.69-6,17.75,17.75,0,0,1,6.83-3.45,16.84,16.84,0,0,1,2.5-.46l1-.09a8.46,8.46,0,0,0-.89-.41,10.27,10.27,0,0,0-2.66-.68,11.43,11.43,0,0,0-4.15.25,11.54,11.54,0,0,0-4.67,2.31,11.87,11.87,0,0,0-2.84,3.5l-.16-.09a8.12,8.12,0,0,0-4.57-.69A18.13,18.13,0,0,0,61.5-24a19,19,0,0,0-6.63,5.34,18,18,0,0,0-2.11,3.42,15.83,15.83,0,0,0,.59-4.47,9.41,9.41,0,0,0-1.71-5.2,5.67,5.67,0,0,0-2.26-1.86,5,5,0,0,0-2.88-.35,6,6,0,0,0-3.94,2.71,4.93,4.93,0,0,0-.72,2.09,4.14,4.14,0,0,0,.29,2,3.6,3.6,0,0,0,2.46,2.21,3,3,0,0,0,2.31-.48,2.35,2.35,0,0,0,.89-1.1,2.19,2.19,0,0,0,.11-.46,1.82,1.82,0,0,1-.23.39,2.19,2.19,0,0,1-1,.72,2.3,2.3,0,0,1-1.76-.06,2.35,2.35,0,0,1-1.21-1.71,2.71,2.71,0,0,1,.7-2.31,3.89,3.89,0,0,1,2.5-1.27,2.42,2.42,0,0,1,2.19,1.29,7.16,7.16,0,0,1,1,3.47,18.81,18.81,0,0,1-1.79,7.83A37.64,37.64,0,0,1,44.74-5.78Z"/><path class="cls-2" d="M114.6,39.75a7.8,7.8,0,0,0-3,.38,13,13,0,0,0-4,2.17c-1.32,1-2.56,2.26-3.8,3.43a18,18,0,0,1-3.64,2.79A15.46,15.46,0,0,1,96.62,50a17.35,17.35,0,0,1-2.71.47c-.34,0-.6,0-.78.06h-.28l.25.12a7.91,7.91,0,0,0,.74.32,10.55,10.55,0,0,0,2.91.65,11.62,11.62,0,0,0,4.53-.54,12.66,12.66,0,0,0,4.79-2.94,49.57,49.57,0,0,0,3.45-3.81,19.64,19.64,0,0,1,2.81-2.73,9.41,9.41,0,0,1,2.34-1.33,7.45,7.45,0,0,1,.73-.24l.27-.07-.27-.07A5.76,5.76,0,0,0,114.6,39.75Z"/><path class="cls-2" d="M85.74,50.45A17.44,17.44,0,0,1,83,50a15.4,15.4,0,0,1-3.56-1.46,17.44,17.44,0,0,1-3.64-2.79c-1.24-1.17-2.49-2.41-3.81-3.43a12.91,12.91,0,0,0-4-2.17,7.84,7.84,0,0,0-3-.38,5.51,5.51,0,0,0-.8.13L64,40l.27.07c.17,0,.42.13.73.24a9.59,9.59,0,0,1,2.34,1.33,19.62,19.62,0,0,1,2.8,2.73c1,1.13,2,2.48,3.45,3.81a12.69,12.69,0,0,0,4.8,2.94,11.59,11.59,0,0,0,4.52.54A10.72,10.72,0,0,0,85.81,51a6.53,6.53,0,0,0,.73-.32l.25-.12h-.28C86.33,50.5,86.07,50.49,85.74,50.45Z"/><path class="cls-2" d="M122.66,7.05a8.56,8.56,0,0,0-.17-1c-.13-.54-.21-.83-.21-.83L122,6c-.09.25-.2.56-.35.91s-.27.75-.47,1.17c-.35.85-.82,1.83-1.34,2.88s-1.14,2.14-1.8,3.29-1.35,2.21-2,3.19-1.29,1.85-1.86,2.57c-.27.38-.55.69-.79,1s-.45.55-.63.75l-.55.65.83-.22a9.25,9.25,0,0,0,1-.33c.36-.16.79-.32,1.22-.56a14.23,14.23,0,0,0,5.64-5.37,15,15,0,0,0,1.58-4,13.42,13.42,0,0,0,.34-3.51A8.74,8.74,0,0,0,122.66,7.05Z"/><path class="cls-2" d="M58,6.93c-.15-.35-.26-.66-.34-.91l-.3-.8s-.09.29-.21.83a6.74,6.74,0,0,0-.18,1,10.22,10.22,0,0,0-.11,1.34,14.34,14.34,0,0,0,.34,3.51,14.67,14.67,0,0,0,1.59,4,15,15,0,0,0,2.74,3.36,14.63,14.63,0,0,0,2.89,2c.44.24.86.4,1.23.56a9.16,9.16,0,0,0,1,.33l.83.22-.55-.65q-.27-.3-.63-.75c-.23-.29-.51-.6-.79-1-.57-.72-1.19-1.61-1.85-2.57s-1.32-2.05-2-3.19S60.36,12,59.82,11s-1-2-1.33-2.88C58.29,7.68,58.16,7.28,58,6.93Z"/><path class="cls-2" d="M94,42.58a10.2,10.2,0,0,0,9.32-5.84,9.27,9.27,0,0,0,.61-1.65c.1-.41.14-.64.14-.64l-6.3,3.79-6.15,4a6.26,6.26,0,0,0,.63.15A9.09,9.09,0,0,0,94,42.58Z"/><path class="cls-2" d="M75.61,34.45s0,.23.15.64a8.53,8.53,0,0,0,.61,1.65,10.2,10.2,0,0,0,9.31,5.84,9.12,9.12,0,0,0,1.76-.17c.4-.08.63-.15.63-.15l-6.16-4Z"/><path class="cls-2" d="M92.38,12.63A7.7,7.7,0,0,0,97,10.58a7.71,7.71,0,0,0,2.3-4.53,5.94,5.94,0,0,0,0-1.56c0-.37-.08-.57-.08-.57l-.41.4c-.24.26-.6.61-1,1-.84.82-1.95,1.78-3.08,2.85s-2.14,2.13-3,2.93c-.43.39-.8.74-1.07,1s-.43.38-.43.38a5,5,0,0,0,.57.12A6.59,6.59,0,0,0,92.38,12.63Z"/><path class="cls-2" d="M87.26-8.22a7.68,7.68,0,0,0-4.65,2.06,7.71,7.71,0,0,0-2.3,4.53,7,7,0,0,0,0,1.56c0,.37.09.57.09.57l.4-.41c.24-.25.6-.61,1-1,.84-.83,2-1.79,3.08-2.86s2.15-2.13,3-2.92c.42-.4.8-.74,1.07-1L89.38-8s-.2,0-.56-.11A6.11,6.11,0,0,0,87.26-8.22Z"/><path class="cls-2" d="M87.89,11.12c-.87-.8-1.89-1.86-3-2.93s-2.24-2-3.08-2.85c-.42-.41-.78-.76-1-1l-.4-.4s0,.2-.09.57a7,7,0,0,0,0,1.56,7.71,7.71,0,0,0,2.3,4.53,7.72,7.72,0,0,0,4.65,2.05,6.7,6.7,0,0,0,1.56-.05,5,5,0,0,0,.56-.12L89,12.08C88.69,11.86,88.31,11.51,87.89,11.12Z"/><path class="cls-2" d="M91.76-6.7c.87.79,1.88,1.85,3,2.92s2.24,2,3.08,2.86c.42.4.78.76,1,1l.41.41s0-.2.08-.57a5.94,5.94,0,0,0,0-1.56A7.71,7.71,0,0,0,97-6.16a7.66,7.66,0,0,0-4.65-2.06,6,6,0,0,0-1.55.06c-.37.06-.57.11-.57.11l.43.38C91-7.44,91.33-7.1,91.76-6.7Z"/></pattern></defs><title>Asset 6</title><g id="Layer_2" data-name="Layer 2"><g id="Layer_1-2" data-name="Layer 1"><rect class="cls-3" width="622" height="371.04"/></g></g></svg>