<?xml version="1.0" encoding="utf-8"?>
<!-- Generator: Adobe Illustrator 24.3.0, SVG Export Plug-In . SVG Version: 6.00 Build 0)  -->
<svg version="1.1" id="Layer_1" xmlns="http://www.w3.org/2000/svg" xmlns:xlink="http://www.w3.org/1999/xlink" x="0px" y="0px"
	 viewBox="0 0 32 32" style="enable-background:new 0 0 32 32;" xml:space="preserve">
<style type="text/css">
	.st0{clip-path:url(#SVGID_2_);fill:none;stroke:#000000;stroke-width:0.72;stroke-miterlimit:10;}
	.st1{clip-path:url(#SVGID_4_);fill:none;stroke:#000000;stroke-width:0.72;stroke-miterlimit:10;}
	.st2{clip-path:url(#SVGID_6_);fill:none;stroke:#000000;stroke-width:0.72;stroke-miterlimit:10;}
	.st3{clip-path:url(#SVGID_8_);fill:none;stroke:#000000;stroke-width:0.72;stroke-miterlimit:10;}
	.st4{fill:none;stroke:#000000;stroke-width:0.72;stroke-miterlimit:10;}
</style>
<g id="security--shield_2_">
	<g>
		<g>
			<defs>
				<path id="SVGID_1_" d="M11.4,31.3c6,0,11-5,11-11c0-7,0-13,0-13l-11-6V31.3z"/>
			</defs>
			<clipPath id="SVGID_2_">
				<use xlink:href="#SVGID_1_"  style="overflow:visible;"/>
			</clipPath>
			<line class="st0" x1="10.4" y1="6.8" x2="22.4" y2="13.3"/>
		</g>
		<g>
			<defs>
				<path id="SVGID_3_" d="M11.4,31.3c6,0,11-5,11-11c0-7,0-13,0-13l-11-6V31.3z"/>
			</defs>
			<clipPath id="SVGID_4_">
				<use xlink:href="#SVGID_3_"  style="overflow:visible;"/>
			</clipPath>
			<line class="st1" x1="10.4" y1="12.7" x2="22.4" y2="19.3"/>
		</g>
		<g>
			<defs>
				<path id="SVGID_5_" d="M11.4,31.3c6,0,11-5,11-11c0-7,0-13,0-13l-11-6V31.3z"/>
			</defs>
			<clipPath id="SVGID_6_">
				<use xlink:href="#SVGID_5_"  style="overflow:visible;"/>
			</clipPath>
			<line class="st2" x1="10.4" y1="18.8" x2="21.4" y2="24.8"/>
		</g>
		<g>
			<defs>
				<path id="SVGID_7_" d="M11.4,31.3c6,0,11-5,11-11c0-7,0-13,0-13l-11-6V31.3z"/>
			</defs>
			<clipPath id="SVGID_8_">
				<use xlink:href="#SVGID_7_"  style="overflow:visible;"/>
			</clipPath>
			<line class="st3" x1="10.4" y1="24.8" x2="18" y2="29"/>
		</g>
	</g>
	<path class="st4" d="M11.4,1.3l-11,6c0,0,0,8,0,13c0,6,5,11,11,11s11-5,11-11c0-7,0-13,0-13L11.4,1.3z"/>
</g>
</svg>
