<?xml version="1.0" encoding="utf-8"?>
<!-- Generator: Adobe Illustrator 24.3.0, SVG Export Plug-In . SVG Version: 6.00 Build 0)  -->
<svg version="1.1" id="Layer_1" xmlns="http://www.w3.org/2000/svg" xmlns:xlink="http://www.w3.org/1999/xlink" x="0px" y="0px"
	 viewBox="0 0 32 32" style="enable-background:new 0 0 32 32;" xml:space="preserve">
<style type="text/css">
	.st0{fill:none;stroke:#000000;stroke-width:0.72;stroke-miterlimit:10;}
	.st1{fill:none;stroke:#000000;stroke-width:0.72;stroke-linejoin:round;stroke-miterlimit:10;}
</style>
<g id="consumer--engagement--food--journey">
	<polyline class="st0" points="17.4,29.9 20.4,26.9 17.4,23.9 	"/>
	<polyline class="st0" points="13.4,1.9 10.4,4.9 13.4,7.9 	"/>
	<path class="st1" d="M22.4,30.9v-0.5c0-1.8,1.2-3.4,2.9-3.8c-0.5-0.4-0.9-1-0.9-1.7c0-1.1,0.9-2,2-2s2,0.9,2,2
		c0,0.7-0.4,1.3-0.9,1.7c1.7,0.5,2.9,2,2.9,3.8v0.5 M5.4,19.9h-4v4h4V19.9z M29.4,7.9h-4v4h4V7.9z M3.4,23.9v3h17 M10.4,15.9h-7v4
		 M20.4,15.9h7v-4 M27.4,7.9v-3h-17 M4,2.9c-0.9,0-1.1-0.4-2-0.4c-1.2,0-1.6,1-1.6,2c0,2.3,1.1,3.7,2.1,3.7c0.4,0,0.8-0.3,1.4-0.3
		s0.9,0.3,1.4,0.3c1.1,0,2.1-1.4,2.1-3.7c0-1.1-0.3-2-1.6-2c-0.9,0-1.1,0.4-2,0.4 M3.9,2.9V0.9 M12.4,13.9v4 M18.4,13.9v4
		 M13.4,18.9h4 M13.4,12.9h4"/>
</g>
</svg>
