<?xml version="1.0" encoding="utf-8"?>
<!-- Generator: Adobe Illustrator 24.3.0, SVG Export Plug-In . SVG Version: 6.00 Build 0)  -->
<svg version="1.1" id="Layer_1" xmlns="http://www.w3.org/2000/svg" xmlns:xlink="http://www.w3.org/1999/xlink" x="0px" y="0px"
	 viewBox="0 0 32 32" style="enable-background:new 0 0 32 32;" xml:space="preserve">
<style type="text/css">
	.st0{fill:none;stroke:#000000;stroke-width:0.72;stroke-linejoin:round;stroke-miterlimit:10;}
</style>
<path id="transparency--01_1_" class="st0" d="M15.5,15.3c-0.1-0.3-0.1-0.6-0.1-0.9c0-1.7,1.3-3,3-3s3,1.3,3,3
	c0,0.3-0.1,0.6-0.1,0.9 M18.4,11.3c2,0,2-2,2-2 M9.4,9.3v-2 M12.4,12.3 M14.4,15.3h-9c0,5,3,9,8,9h2c5,0,8-4,8-9H14.4c-3,0-3-4-3-4
	c0-1.1-0.9-2-2-2s-2,0.9-2,2v4 M15.7,13.1c-0.7-0.5-1.5-0.7-2.3-0.7c-0.6,0-1.3,0.2-1.8,0.4 M12.4,30.3h16v-28h-9 M12.4,2.3h4
	 M5.4,30.3h4 M5.4,2.3h4 M0.4,28.3v2h2 M2.4,2.3h-2v2 M0.4,7.3v4 M0.4,14.3v4 M0.4,21.3v4"/>
</svg>
